<svg width="40" height="40" viewBox="0 0 40 40" fill="none" xmlns="http://www.w3.org/2000/svg">
<rect width="40" height="40" rx="4" fill="white"/>
<path d="M15 13C15 11.34 16.34 10 18 10H22C23.66 10 25 11.34 25 13C25 13.55 24.55 14 24 14H16C15.45 14 15 13.55 15 13Z" fill="#646F95"/>
<path d="M25.75 23C25.75 23.41 25.41 23.75 25 23.75H24V27C24 28.66 22.66 30 21 30H19C17.34 30 16 28.66 16 27V23.75H15C14.59 23.75 14.25 23.41 14.25 23C14.25 22.59 14.59 22.25 15 22.25H25C25.41 22.25 25.75 22.59 25.75 23Z" fill="#646F95"/>
<path d="M26 15H14C12 15 11 16 11 18V23C11 25 12 26 14 26H14.375C14.7202 26 15 25.7202 15 25.375C15 25.0298 14.7113 24.7604 14.3884 24.6384C13.7262 24.3882 13.25 23.7453 13.25 23C13.25 22.04 14.04 21.25 15 21.25H25C25.96 21.25 26.75 22.04 26.75 23C26.75 23.7453 26.2738 24.3882 25.6116 24.6384C25.2887 24.7604 25 25.0298 25 25.375C25 25.7202 25.2798 26 25.625 26H26C28 26 29 25 29 23V18C29 16 28 15 26 15ZM18 19.75H15C14.59 19.75 14.25 19.41 14.25 19C14.25 18.59 14.59 18.25 15 18.25H18C18.41 18.25 18.75 18.59 18.75 19C18.75 19.41 18.41 19.75 18 19.75Z" fill="#646F95"/>
</svg>
