<svg width="24" height="24" viewBox="0 0 24 24" fill="none" xmlns="http://www.w3.org/2000/svg">
<path d="M14.1562 14.5078V15.7656H17.8047C20.2031 15.7656 21.6406 14.3203 21.6406 12.4297C21.6406 10.8516 20.6953 9.55469 19.1719 8.9375C19.1875 5.45312 16.6797 2.9375 13.4844 2.9375C11.3672 2.9375 9.85938 4.07031 8.92188 5.4375C7.14844 4.96094 4.90625 6.33594 4.86719 8.53125C3.10156 8.80469 2 10.25 2 12.0938C2 14.125 3.52344 15.7656 6.08594 15.7656H9.55469V14.5078H6.07812C4.22656 14.5078 3.25781 13.4375 3.25781 12.0938C3.25781 10.6016 4.20312 9.49219 5.85938 9.49219C5.96875 9.49219 6.00781 9.42969 6.00781 9.32812C6.00781 6.92969 7.73438 6.26562 9.34375 6.73438C9.4375 6.76562 9.49219 6.75 9.53906 6.66406C10.2969 5.3125 11.4609 4.19531 13.4844 4.19531C16.0469 4.19531 17.8203 6.22656 17.9531 8.55469C17.9766 8.90625 17.9531 9.32812 17.9219 9.69531C17.9141 9.79688 17.9531 9.85938 18.0469 9.875C19.4688 10.1875 20.3828 11.0781 20.3828 12.4297C20.3828 13.6328 19.5078 14.5078 17.7969 14.5078H14.1562ZM11.8594 20.4062C12.0156 20.4062 12.1406 20.3438 12.3047 20.1953L14.9453 17.7266C15.0703 17.6172 15.1328 17.4844 15.1328 17.3125C15.1328 17 14.8828 16.7656 14.5625 16.7656C14.4141 16.7656 14.2578 16.8359 14.1406 16.9531L12.9531 18.1406L12.4297 18.6875L12.4766 17.5234V10.8203C12.4766 10.4922 12.1953 10.2109 11.8594 10.2109C11.5234 10.2109 11.2344 10.4922 11.2344 10.8203V17.5234L11.2812 18.6953L10.7578 18.1406L9.57031 16.9531C9.45312 16.8359 9.28906 16.7656 9.14062 16.7656C8.8125 16.7656 8.57812 17 8.57812 17.3125C8.57812 17.4844 8.64062 17.6172 8.76562 17.7266L11.4062 20.1953C11.5703 20.3438 11.6953 20.4062 11.8594 20.4062Z" fill="#646F95"/>
</svg>
