<svg width="41" height="40" viewBox="0 0 41 40" fill="none" xmlns="http://www.w3.org/2000/svg">
<rect x="0.599609" width="40" height="40" rx="4" fill="white"/>
<path d="M21.8974 10.1157C21.606 10.0644 21.3496 10.2969 21.3496 10.5928V13.4536C21.3496 13.652 21.4706 13.8266 21.6355 13.9368C22.1387 14.273 22.4696 14.8469 22.4696 15.5V17.5C22.4696 18.53 21.6296 19.38 20.5996 19.38C19.5596 19.38 18.7196 18.53 18.7196 17.5V15.5C18.7196 14.8468 19.0579 14.2727 19.5636 13.9365C19.7287 13.8267 19.8496 13.652 19.8496 13.4536V10.5935C19.8496 10.2973 19.5931 10.0647 19.3015 10.1161C17.752 10.3893 16.3654 11.1343 15.2996 12.2C13.9396 13.56 13.0996 15.44 13.0996 17.5V22.5C13.0996 26.63 16.4696 30 20.5996 30C24.7296 30 28.0996 26.63 28.0996 22.5V17.5C28.0996 13.8095 25.4127 10.7343 21.8974 10.1157Z" fill="#646F95"/>
</svg>
