<svg width="529" height="439" viewBox="0 0 529 439" fill="none" xmlns="http://www.w3.org/2000/svg">
<g opacity="0.2">
<path d="M311.023 209.902L354.394 179.381L354.395 129.622L478.578 42.2344L478.315 41.6787L353.869 129.253L353.868 179.012L310.759 209.346L311.023 209.902Z" fill="#42E8DF"/>
<path d="M366.94 120.61L366.942 75.0466L419.844 37.8203L419.58 37.2646L366.415 74.6773L366.414 120.61H366.94Z" fill="#42E8DF"/>
<path d="M319.154 215.625L361.193 186.042L434.52 186.041L498.791 140.814L498.65 140.172L434.378 185.399L361.052 185.4L318.892 215.07L319.154 215.625Z" fill="#42E8DF"/>
<path d="M256.635 215.624L256.898 215.069L172.058 155.366L121.542 155.367L89.9693 133.15V97.1016H89.4427V133.52L89.5742 133.613L121.401 156.009L171.918 156.007L256.635 215.624Z" fill="#42E8DF"/>
<path d="M266.776 208.491L267.039 207.934L181.25 147.565L181.252 111.597L181.12 111.504L150.221 89.7607L149.959 90.3164L180.725 111.967L180.723 147.935L180.856 148.028L266.776 208.491Z" fill="#42E8DF"/>
<path d="M277.4 201.014L277.663 200.458L227.23 164.968V134.84L314.918 73.1338L314.654 72.5781L226.703 134.47V165.338L226.835 165.431L277.4 201.014Z" fill="#42E8DF"/>
<path d="M4.49751 338.164H82.3838L138.461 298.701H184.837L248.767 253.713L248.503 253.157L184.696 298.06H138.32L82.2424 337.522H4.63832L-29.6107 313.422L-29.8742 313.978L4.49751 338.164Z" fill="#42E8DF"/>
<path d="M100.12 310.698L127.812 291.211H181.035L241.544 248.631L241.28 248.075L180.894 290.569H127.671L99.8574 310.142L100.12 310.698Z" fill="#42E8DF"/>
<path d="M213.622 268.094L213.885 267.538L169.44 236.262H137.555L116.965 250.752L117.228 251.308L137.696 236.904H169.299L213.622 268.094Z" fill="#42E8DF"/>
<path d="M93.1835 345.946L118.123 328.394V313.098H117.596V328.024L92.9199 345.39L93.1835 345.946Z" fill="#42E8DF"/>
<path d="M249.064 119.425H269.236L305.295 94.0518L305.032 93.4961L269.095 118.784H249.064V119.425Z" fill="#42E8DF"/>
<path d="M267.619 193.945H268.146V177.708L268.014 177.616L243.197 160.152V143.383H242.671V160.522L242.802 160.614L267.619 178.078V193.945Z" fill="#42E8DF"/>
<path d="M407.597 374.231L407.86 373.674L364.655 343.271L364.656 293.512L364.524 293.419L317.297 260.186L317.035 260.741L364.129 293.881L364.128 343.64L364.261 343.734L407.597 374.231Z" fill="#42E8DF"/>
<path d="M378.326 394.831L378.589 394.276L361.614 382.33V360.393L361.482 360.301L344.887 348.623L344.888 290.302L344.756 290.209L309.695 265.536L309.431 266.092L344.361 290.672L344.36 348.992L344.492 349.085L361.087 360.763V382.7L361.219 382.793L378.326 394.831Z" fill="#42E8DF"/>
<path d="M512.34 309.086L512.603 308.529L498.899 298.884H469.921L417.687 262.127L371.762 262.128L343.15 241.993L342.886 242.55L371.621 262.77L417.546 262.769L469.781 299.526H498.758L512.34 309.086Z" fill="#42E8DF"/>
<path d="M482.73 283.907L482.993 283.351L464.684 270.468H429.47V271.11H464.543L482.73 283.907Z" fill="#42E8DF"/>
<path d="M474.612 379.507L474.875 378.951L407.825 331.766V307.007L407.693 306.914L329.294 251.744L329.031 252.3L407.299 307.377V332.136L407.43 332.229L474.612 379.507Z" fill="#42E8DF"/>
<path d="M473.582 380.87C474.5 381.517 475.99 381.517 476.908 380.87C477.827 380.224 477.827 379.175 476.908 378.529C475.99 377.882 474.5 377.882 473.582 378.529C472.663 379.175 472.663 380.224 473.582 380.87Z" fill="#42E8DF"/>
<path d="M405.634 375.527C406.552 376.173 408.042 376.173 408.96 375.527C409.879 374.88 409.879 373.832 408.96 373.185C408.042 372.539 406.552 372.539 405.634 373.185C404.716 373.832 404.716 374.88 405.634 375.527Z" fill="#42E8DF"/>
<path d="M377.688 396.232C378.606 396.878 380.096 396.878 381.014 396.232C381.933 395.585 381.933 394.537 381.014 393.89C380.096 393.244 378.606 393.244 377.688 393.89C376.769 394.537 376.769 395.585 377.688 396.232Z" fill="#42E8DF"/>
<path d="M327.56 221.539L357.818 200.247L442.779 200.245L504.235 156.998L503.972 156.442L442.638 199.604L357.677 199.605L327.297 220.983L327.56 221.539Z" fill="#42E8DF"/>
<path d="M396.257 212.476L443.163 212.474V211.832L396.398 211.834L379.083 199.647L378.82 200.203L396.257 212.476Z" fill="#42E8DF"/>
<path d="M270.587 431.74L270.588 396.626L270.456 396.533L202.896 348.991L202.897 311.406L266.824 266.422L266.561 265.865L202.37 311.037L202.369 349.361L202.501 349.455L270.061 396.997L270.06 431.74H270.587Z" fill="#42E8DF"/>
<path d="M283.854 387.208L284.117 386.651L260.677 370.156H232.985V370.798H260.537L283.854 387.208Z" fill="#42E8DF"/>
<path d="M228.859 305.917L275.905 272.811L275.642 272.255L228.597 305.36L228.859 305.917Z" fill="#42E8DF"/>
<path d="M326.637 389.068L326.64 291.64L326.508 291.546L299.619 272.625L299.356 273.181L326.113 292.009L326.111 389.068H326.637Z" fill="#42E8DF"/>
<path d="M324.535 391.556C325.454 392.203 326.943 392.203 327.862 391.556C328.781 390.909 328.781 389.861 327.862 389.214C326.943 388.568 325.454 388.568 324.535 389.214C323.617 389.861 323.617 390.909 324.535 391.556Z" fill="#42E8DF"/>
<path d="M312.763 375.024L312.764 341.39L326.508 331.718L326.245 331.162L312.238 341.02L312.236 375.024H312.763Z" fill="#42E8DF"/>
<path d="M500.778 253.015L501.042 252.459L458.749 222.699H393.619L372.021 207.501H361.379L334.757 226.235L335.02 226.79L361.52 208.143H371.88L393.477 223.341H458.609L500.778 253.015Z" fill="#42E8DF"/>
<path d="M213.045 317.36H230.17L284.691 278.994L284.428 278.438L230.029 316.718H213.045V317.36Z" fill="#42E8DF"/>
<path d="M259.17 333.268L303.925 301.775V288.364L303.793 288.271L290.591 278.979L290.328 279.536L303.398 288.733V301.405L258.907 332.713L259.17 333.268Z" fill="#42E8DF"/>
<path d="M256.225 323.503L276.075 309.534H292.709V308.893H275.935L255.962 322.947L256.225 323.503Z" fill="#42E8DF"/>
<path d="M256.58 353.516L277.336 338.91V327.322L300.657 310.912V303.889H300.131V310.542L276.81 326.953V338.54L256.318 352.96L256.58 353.516Z" fill="#42E8DF"/>
<path d="M254.43 324.397C255.348 325.043 256.838 325.043 257.756 324.397C258.675 323.75 258.675 322.702 257.756 322.055C256.838 321.409 255.348 321.409 254.43 322.055C253.512 322.702 253.512 323.75 254.43 324.397Z" fill="#42E8DF"/>
<path d="M257.317 334.119C258.235 334.766 259.724 334.766 260.643 334.119C261.562 333.473 261.562 332.424 260.643 331.778C259.724 331.131 258.235 331.131 257.317 331.778C256.398 332.424 256.398 333.473 257.317 334.119Z" fill="#42E8DF"/>
<path d="M304.933 328.501C305.851 329.147 307.34 329.147 308.259 328.501C309.178 327.854 309.178 326.806 308.26 326.16C307.341 325.513 305.851 325.513 304.933 326.16C304.014 326.806 304.014 327.854 304.933 328.501Z" fill="#42E8DF"/>
<path d="M404.785 240.993C405.704 241.639 407.193 241.639 408.112 240.993C409.031 240.346 409.031 239.298 408.112 238.652C407.193 238.005 405.704 238.005 404.785 238.652C403.867 239.298 403.867 240.346 404.785 240.993Z" fill="#42E8DF"/>
<path d="M469.175 258.508C470.094 259.155 471.584 259.155 472.502 258.508C473.421 257.862 473.421 256.814 472.502 256.168C471.584 255.521 470.094 255.521 469.175 256.168C468.257 256.814 468.257 257.862 469.175 258.508Z" fill="#42E8DF"/>
<path d="M384.381 228.974C385.3 229.621 386.789 229.621 387.708 228.974C388.626 228.328 388.626 227.28 387.708 226.633C386.789 225.987 385.3 225.987 384.381 226.633C383.463 227.28 383.463 228.328 384.381 228.974Z" fill="#42E8DF"/>
<path d="M377.105 248.431C378.023 249.078 379.512 249.078 380.431 248.431C381.35 247.785 381.35 246.737 380.431 246.09C379.513 245.444 378.023 245.444 377.105 246.09C376.186 246.737 376.186 247.785 377.105 248.431Z" fill="#42E8DF"/>
<path d="M268.66 432.911C269.579 433.557 271.068 433.557 271.987 432.911C272.905 432.264 272.905 431.215 271.987 430.569C271.069 429.922 269.579 429.922 268.66 430.569C267.741 431.215 267.741 432.264 268.66 432.911Z" fill="#42E8DF"/>
<path d="M282.324 388.101C283.242 388.747 284.731 388.747 285.65 388.101C286.569 387.454 286.569 386.406 285.65 385.759C284.731 385.113 283.242 385.113 282.324 385.759C281.405 386.406 281.405 387.454 282.324 388.101Z" fill="#42E8DF"/>
<path d="M60.455 428.87C61.3734 429.517 62.8628 429.517 63.7812 428.87C64.7001 428.224 64.7006 427.175 63.7823 426.529C62.8633 425.882 61.3734 425.882 60.455 426.529C59.5366 427.175 59.5366 428.224 60.455 428.87Z" fill="#42E8DF"/>
<path d="M141.733 430.956C142.651 431.602 144.14 431.602 145.059 430.956C145.978 430.309 145.978 429.261 145.059 428.615C144.141 427.968 142.651 427.968 141.733 428.615C140.814 429.261 140.814 430.309 141.733 430.956Z" fill="#42E8DF"/>
<path d="M166.088 363.422C167.007 364.068 168.496 364.068 169.414 363.422C170.333 362.775 170.333 361.727 169.414 361.081C168.496 360.434 167.007 360.434 166.088 361.081C165.17 361.727 165.17 362.775 166.088 363.422Z" fill="#42E8DF"/>
<path d="M441.499 213.324C442.418 213.97 443.907 213.97 444.825 213.324C445.744 212.677 445.744 211.629 444.825 210.983C443.907 210.336 442.418 210.336 441.499 210.983C440.581 211.629 440.58 212.677 441.499 213.324Z" fill="#42E8DF"/>
<path d="M502.44 157.891C503.358 158.538 504.848 158.538 505.767 157.891C506.686 157.245 506.686 156.197 505.767 155.55C504.848 154.904 503.358 154.904 502.44 155.55C501.522 156.197 501.522 157.245 502.44 157.891Z" fill="#42E8DF"/>
<path d="M498.017 140.927C498.936 141.573 500.426 141.573 501.344 140.927C502.263 140.28 502.263 139.233 501.344 138.586C500.426 137.94 498.936 137.94 498.017 138.586C497.099 139.233 497.099 140.28 498.017 140.927Z" fill="#42E8DF"/>
<path d="M418.429 38.9793C419.347 39.6258 420.837 39.6258 421.756 38.9793C422.674 38.3328 422.674 37.2855 421.756 36.6397C420.837 35.9925 419.347 35.9925 418.429 36.6397C417.51 37.2855 417.51 38.3328 418.429 38.9793Z" fill="#42E8DF"/>
<path d="M254.785 354.409C255.704 355.055 257.193 355.055 258.112 354.409C259.031 353.762 259.031 352.713 258.112 352.067C257.193 351.42 255.704 351.42 254.785 352.067C253.867 352.713 253.867 353.762 254.785 354.409Z" fill="#42E8DF"/>
<path d="M310.835 376.195C311.754 376.841 313.243 376.841 314.161 376.195C315.08 375.548 315.08 374.5 314.161 373.853C313.243 373.207 311.754 373.207 310.835 373.853C309.917 374.5 309.917 375.548 310.835 376.195Z" fill="#42E8DF"/>
<path d="M481.198 284.799C482.116 285.446 483.606 285.446 484.525 284.799C485.443 284.153 485.443 283.105 484.525 282.459C483.607 281.812 482.116 281.812 481.198 282.459C480.279 283.105 480.279 284.153 481.198 284.799Z" fill="#42E8DF"/>
<path d="M439.105 306.531C440.023 307.177 441.513 307.177 442.431 306.531C443.35 305.884 443.35 304.836 442.431 304.189C441.513 303.542 440.023 303.542 439.105 304.189C438.186 304.836 438.186 305.884 439.105 306.531Z" fill="#42E8DF"/>
<path d="M499.21 253.934C500.128 254.581 501.618 254.581 502.536 253.934C503.455 253.288 503.455 252.24 502.537 251.593C501.618 250.947 500.129 250.947 499.21 251.593C498.291 252.24 498.291 253.288 499.21 253.934Z" fill="#42E8DF"/>
<path d="M211.382 318.21C212.3 318.857 213.79 318.857 214.708 318.21C215.627 317.564 215.627 316.515 214.709 315.869C213.79 315.222 212.3 315.222 211.382 315.869C210.463 316.515 210.463 317.564 211.382 318.21Z" fill="#42E8DF"/>
<path d="M116.506 251.445C117.425 252.092 118.914 252.092 119.832 251.445C120.751 250.799 120.751 249.751 119.832 249.105C118.914 248.458 117.425 248.458 116.506 249.105C115.588 249.751 115.588 250.799 116.506 251.445Z" fill="#42E8DF"/>
<path d="M156.668 210.054C157.586 210.701 159.076 210.701 159.995 210.054C160.913 209.408 160.913 208.36 159.995 207.713C159.076 207.067 157.586 207.067 156.668 207.713C155.749 208.36 155.749 209.408 156.668 210.054Z" fill="#42E8DF"/>
<path d="M179.373 224.393C180.292 225.039 181.781 225.039 182.7 224.393C183.618 223.746 183.618 222.698 182.7 222.052C181.781 221.406 180.292 221.406 179.373 222.052C178.454 222.698 178.454 223.746 179.373 224.393Z" fill="#42E8DF"/>
<path d="M201.186 201.955C202.104 202.601 203.594 202.601 204.513 201.955C205.432 201.308 205.432 200.26 204.513 199.614C203.595 198.967 202.104 198.967 201.186 199.614C200.268 200.26 200.268 201.308 201.186 201.955Z" fill="#42E8DF"/>
<path d="M241.27 144.553C242.188 145.199 243.678 145.199 244.597 144.553C245.516 143.906 245.516 142.859 244.597 142.212C243.678 141.566 242.188 141.566 241.27 142.212C240.352 142.859 240.352 143.906 241.27 144.553Z" fill="#42E8DF"/>
<path d="M87.5566 98.6142C88.475 99.2608 89.9643 99.2608 90.8827 98.6142C91.8017 97.9677 91.8022 96.9205 90.8838 96.274C89.9649 95.6274 88.475 95.6274 87.5566 96.274C86.6382 96.9205 86.6382 97.9677 87.5566 98.6142Z" fill="#42E8DF"/>
<path d="M148.426 91.209C149.345 91.8555 150.835 91.8555 151.754 91.209C152.672 90.5625 152.672 89.5152 151.754 88.8687C150.835 88.2222 149.345 88.2222 148.426 88.8687C147.508 89.5152 147.508 90.5625 148.426 91.209Z" fill="#42E8DF"/>
<path d="M269.262 148.497C270.181 149.144 271.671 149.144 272.59 148.497C273.508 147.851 273.508 146.803 272.59 146.157C271.671 145.51 270.181 145.51 269.262 146.157C268.344 146.803 268.344 147.851 269.262 148.497Z" fill="#42E8DF"/>
<path d="M272.351 127.598C273.269 128.244 274.759 128.244 275.677 127.598C276.596 126.951 276.596 125.903 275.677 125.257C274.759 124.611 273.269 124.611 272.351 125.257C271.432 125.903 271.432 126.951 272.351 127.598Z" fill="#42E8DF"/>
<path d="M320.543 102.924C321.462 103.57 322.951 103.57 323.869 102.924C324.788 102.277 324.788 101.23 323.869 100.584C322.951 99.937 321.462 99.937 320.543 100.584C319.625 101.23 319.625 102.277 320.543 102.924Z" fill="#42E8DF"/>
<path d="M303.499 94.9433C304.418 95.5899 305.907 95.5899 306.825 94.9433C307.744 94.2968 307.744 93.2496 306.825 92.6031C305.907 91.9565 304.418 91.9565 303.499 92.6031C302.581 93.2496 302.581 94.2968 303.499 94.9433Z" fill="#42E8DF"/>
<path d="M476.784 43.126C477.703 43.7725 479.193 43.7725 480.111 43.126C481.029 42.4794 481.029 41.4315 480.111 40.7857C479.193 40.1392 477.703 40.1392 476.784 40.7857C475.865 41.4315 475.865 42.4794 476.784 43.126Z" fill="#42E8DF"/>
<path d="M313.123 74.0264C314.041 74.6729 315.531 74.6729 316.45 74.0264C317.368 73.3798 317.368 72.3326 316.45 71.6861C315.531 71.0395 314.042 71.0395 313.123 71.6861C312.204 72.3326 312.204 73.3798 313.123 74.0264Z" fill="#42E8DF"/>
<path d="M210.746 248.155C211.665 248.801 213.154 248.801 214.073 248.155C214.991 247.508 214.991 246.461 214.073 245.814C213.155 245.167 211.665 245.167 210.746 245.814C209.828 246.461 209.828 247.508 210.746 248.155Z" fill="#42E8DF"/>
<path d="M322.957 178.862C323.876 179.509 325.365 179.509 326.283 178.862C327.202 178.215 327.202 177.168 326.283 176.521C325.365 175.875 323.876 175.875 322.957 176.521C322.038 177.168 322.038 178.215 322.957 178.862Z" fill="#42E8DF"/>
<path d="M419.663 138.03C420.582 138.677 422.071 138.677 422.99 138.03C423.908 137.384 423.908 136.336 422.99 135.69C422.072 135.043 420.582 135.043 419.663 135.69C418.745 136.336 418.745 137.384 419.663 138.03Z" fill="#42E8DF"/>
<path d="M490.39 93.498C491.309 94.1446 492.799 94.1446 493.717 93.498C494.636 92.8515 494.636 91.8043 493.717 91.1577C492.799 90.5112 491.309 90.5112 490.39 91.1577C489.472 91.8043 489.472 92.8515 490.39 93.498Z" fill="#42E8DF"/>
<path d="M468.277 86.2978C469.195 86.9444 470.685 86.9444 471.604 86.2978C472.523 85.6513 472.523 84.6041 471.604 83.9575C470.685 83.311 469.195 83.311 468.277 83.9575C467.359 84.6041 467.359 85.6513 468.277 86.2978Z" fill="#42E8DF"/>
<path d="M170.985 251.095C171.904 251.742 173.393 251.742 174.311 251.095C175.23 250.449 175.231 249.401 174.313 248.754C173.394 248.108 171.904 248.108 170.985 248.754C170.067 249.401 170.067 250.449 170.985 251.095Z" fill="#42E8DF"/>
<path d="M91.3886 346.837C92.307 347.484 93.7964 347.484 94.7147 346.837C95.6337 346.191 95.6342 345.142 94.7158 344.496C93.7969 343.849 92.307 343.849 91.3886 344.496C90.4702 345.142 90.4702 346.191 91.3886 346.837Z" fill="#42E8DF"/>
<path d="M59.4097 244.544C60.3281 245.19 61.818 245.19 62.737 244.544C63.6554 243.897 63.6554 242.849 62.737 242.203C61.8186 241.556 60.3281 241.556 59.4097 242.203C58.4913 242.849 58.4913 243.897 59.4097 244.544Z" fill="#42E8DF"/>
<path d="M98.3258 311.59C99.2447 312.237 100.735 312.237 101.653 311.59C102.571 310.944 102.571 309.895 101.653 309.249C100.735 308.602 99.2447 308.602 98.3258 309.249C97.4074 309.895 97.4074 310.944 98.3258 311.59Z" fill="#42E8DF"/>
<path d="M227.064 306.81C227.982 307.457 229.472 307.457 230.39 306.81C231.309 306.164 231.309 305.116 230.39 304.469C229.472 303.823 227.982 303.823 227.064 304.469C226.145 305.116 226.145 306.164 227.064 306.81Z" fill="#42E8DF"/>
<path d="M306.786 327.65L326.507 313.771L326.244 313.216L306.524 327.093L306.786 327.65Z" fill="#42E8DF"/>
<path d="M222.19 254.191H233.57V253.549H222.331L212.274 246.472L212.011 247.027L222.19 254.191Z" fill="#42E8DF"/>
<path d="M158.463 209.161L185.979 189.797H204.496L228.902 206.972H244.407V206.33H229.043L204.637 189.155H185.838L158.2 208.605L158.463 209.161Z" fill="#42E8DF"/>
<path d="M230.45 234.054L230.713 233.498L202.991 213.99H193.631L181.372 222.617L181.635 223.173L193.772 214.632H202.85L230.45 234.054Z" fill="#42E8DF"/>
<path d="M222.758 228.455H223.284V214.794L223.153 214.702L202.981 200.505L202.718 201.061L222.758 215.164V228.455Z" fill="#42E8DF"/>
<path d="M362.776 256.495H383.282L406.58 240.101L406.317 239.545L383.141 255.853H362.776V256.495Z" fill="#42E8DF"/>
<path d="M62.2495 427.978L133.094 378.125V346.558L256.897 259.437L256.635 258.881L132.567 346.188V377.755L61.987 427.422L62.2495 427.978Z" fill="#42E8DF"/>
<path d="M385.959 228.049L386.223 227.493L368.551 215.059L361.284 215.06L351.923 221.646H341.346V222.288H352.064L361.425 215.702L368.41 215.7L385.959 228.049Z" fill="#42E8DF"/>
<path d="M303.799 204.821L337.334 181.221L337.335 153.945L337.203 153.851L299.524 127.337V118.086L322.337 102.032L322.074 101.476L298.997 117.717V127.707L299.129 127.8L336.808 154.314L336.807 180.851L303.536 204.266L303.799 204.821Z" fill="#42E8DF"/>
<path d="M311.242 199.027H311.768V187.107L324.753 177.97L324.49 177.414L311.242 186.738V199.027Z" fill="#42E8DF"/>
<path d="M380.114 185.999L459.395 130.206V115.68L492.09 92.6735L491.827 92.1172L458.869 115.31V129.838L379.851 185.443L380.114 185.999Z" fill="#42E8DF"/>
<path d="M408.612 145.621H409.139V128.283L470.072 85.406L469.809 84.8496L408.612 127.913V145.621Z" fill="#42E8DF"/>
<path d="M360.99 185.814L401.06 157.616V151.491L421.457 137.138L421.195 136.582L400.535 151.122V157.247L360.727 185.258L360.99 185.814Z" fill="#42E8DF"/>
<path d="M167.883 362.53L191.586 345.849V327.39L202.765 319.525L202.502 318.969L191.059 327.02V345.481L167.62 361.974L167.883 362.53Z" fill="#42E8DF"/>
<path d="M188.706 261.595H204.439V260.953H188.847L172.78 249.646L172.517 250.202L188.706 261.595Z" fill="#42E8DF"/>
<path d="M118.69 284.289H190.802V283.647H118.831L61.7743 243.495L61.5108 244.051L118.69 284.289Z" fill="#42E8DF"/>
<path d="M294.186 198.054H294.713V163.695L294.58 163.602L271.437 147.316L271.173 147.872L294.186 164.066V198.054Z" fill="#42E8DF"/>
<path d="M294.581 178.17L311.604 166.191V152.51L311.473 152.416L274.146 126.149L273.882 126.705L311.078 152.88V165.82L294.318 177.615L294.581 178.17Z" fill="#42E8DF"/>
<path d="M440.636 305.638L440.899 305.082L398.774 275.438H362.893V276.079H398.634L440.636 305.638Z" fill="#42E8DF"/>
<path d="M445.451 257.659H470.84V257.017H445.592L434.082 248.918L393.066 248.919V249.561L433.941 249.56L445.451 257.659Z" fill="#42E8DF"/>
<path d="M378.498 247.44L378.761 246.885L359.571 233.38H345.106V234.022H359.43L378.498 247.44Z" fill="#42E8DF"/>
<path d="M143.528 430.063L171.863 410.124V380.528L209.394 354.119L209.13 353.563L171.337 380.158V409.754L143.265 429.507L143.528 430.063Z" fill="#42E8DF"/>
<path d="M511.939 310.074C512.858 310.72 514.347 310.72 515.266 310.074C516.185 309.427 516.185 308.378 515.266 307.732C514.347 307.085 512.858 307.085 511.939 307.732C511.021 308.378 511.021 309.427 511.939 310.074Z" fill="#42E8DF"/>
</g>
<mask id="mask0_0_1" style="mask-type:luminance" maskUnits="userSpaceOnUse" x="-38" y="219" width="318" height="187">
<path d="M177.189 219.49L279.659 266.549L-32.4673 405.47L-37.673 293.626L177.189 219.49Z" fill="white"/>
</mask>
<g mask="url(#mask0_0_1)">
<path d="M4.49751 338.163H82.3838L138.461 298.7H184.837L248.767 253.712L248.503 253.156L184.696 298.059H138.32L82.2424 337.521H4.63832L-29.6107 313.421L-29.8742 313.977L4.49751 338.163Z" fill="#42E8DF"/>
</g>
<mask id="mask1_0_1" style="mask-type:luminance" maskUnits="userSpaceOnUse" x="46" y="78" width="156" height="190">
<path d="M90.1995 78.8789L201.488 139.847L183.184 267.908L46.0717 123.909L90.1995 78.8789Z" fill="white"/>
</mask>
<g mask="url(#mask1_0_1)">
<path d="M256.636 215.625L256.899 215.069L172.059 155.366L121.543 155.368L89.9703 133.15V97.1016H89.4437V133.52L89.5752 133.613L121.402 156.01L171.919 156.008L256.636 215.625Z" fill="#42E8DF"/>
<path d="M87.5566 98.6142C88.475 99.2608 89.9643 99.2608 90.8827 98.6142C91.8017 97.9677 91.8022 96.9205 90.8838 96.274C89.9649 95.6274 88.475 95.6274 87.5566 96.274C86.6382 96.9205 86.6382 97.9677 87.5566 98.6142Z" fill="#42E8DF"/>
</g>
<mask id="mask2_0_1" style="mask-type:luminance" maskUnits="userSpaceOnUse" x="311" y="233" width="193" height="175">
<path d="M328.291 233.161L503.914 381.072L474.812 407.12L311.244 245.183L328.291 233.161Z" fill="white"/>
</mask>
<g mask="url(#mask2_0_1)">
<path d="M474.612 379.507L474.875 378.951L407.825 331.766V307.007L407.693 306.914L329.294 251.744L329.031 252.3L407.299 307.377V332.136L407.43 332.229L474.612 379.507Z" fill="#42E8DF"/>
<path d="M473.582 380.869C474.5 381.516 475.99 381.516 476.908 380.869C477.827 380.223 477.827 379.174 476.908 378.528C475.99 377.881 474.5 377.881 473.582 378.528C472.663 379.174 472.663 380.223 473.582 380.869Z" fill="#42E8DF"/>
</g>
<mask id="mask3_0_1" style="mask-type:luminance" maskUnits="userSpaceOnUse" x="315" y="0" width="176" height="197">
<path d="M464.186 0.421875L490.215 48.816L343.026 196.754L315.354 149.028L464.186 0.421875Z" fill="white"/>
</mask>
<g mask="url(#mask3_0_1)">
<path d="M311.023 209.903L354.394 179.381L354.395 129.622L478.578 42.2344L478.315 41.6787L353.869 129.253L353.868 179.012L310.759 209.346L311.023 209.903Z" fill="#42E8DF"/>
<path d="M476.784 43.126C477.703 43.7725 479.193 43.7725 480.111 43.126C481.029 42.4794 481.029 41.4315 480.111 40.7857C479.193 40.1392 477.703 40.1392 476.784 40.7857C475.865 41.4315 475.865 42.4794 476.784 43.126Z" fill="#42E8DF"/>
</g>
<mask id="mask4_0_1" style="mask-type:luminance" maskUnits="userSpaceOnUse" x="200" y="261" width="76" height="178">
<path d="M275.412 261.567V438.197H200.829V261.567H275.412Z" fill="white"/>
</mask>
<g mask="url(#mask4_0_1)">
<path d="M268.66 432.91C269.579 433.556 271.068 433.556 271.987 432.91C272.905 432.263 272.905 431.214 271.987 430.568C271.069 429.921 269.579 429.921 268.66 430.568C267.741 431.214 267.741 432.263 268.66 432.91Z" fill="#42E8DF"/>
<path d="M270.587 431.739L270.588 396.626L270.456 396.532L202.896 348.99L202.897 311.405L266.824 266.421L266.561 265.864L202.37 311.036L202.369 349.36L202.501 349.454L270.061 396.996L270.06 431.739H270.587Z" fill="#42E8DF"/>
</g>
<mask id="mask5_0_1" style="mask-type:luminance" maskUnits="userSpaceOnUse" x="347" y="177" width="182" height="93">
<mask id="mask6_0_1" style="mask-type:alpha" maskUnits="userSpaceOnUse" x="347" y="177" width="182" height="93">
<path d="M374.868 177.393L528.024 228.125L501.114 269.534L347.958 212.791L374.868 177.393Z" fill="white"/>
</mask>
<g mask="url(#mask6_0_1)">
<path d="M-112 -46.6641H602V498.336H-112V-46.6641Z" fill="white"/>
</g>
</mask>
<g mask="url(#mask5_0_1)">
<path d="M499.21 252.598C500.128 253.245 501.618 253.245 502.536 252.598C503.455 251.952 503.455 250.904 502.537 250.257C501.618 249.611 500.129 249.611 499.21 250.257C498.291 250.904 498.291 251.952 499.21 252.598Z" fill="#42E8DF"/>
<path d="M373.772 209.305L393.499 222.996L458.57 222.663L498.982 250.881" stroke="#42E8E0"/>
</g>
<path d="M315.009 158.507L301.541 61.1157L302.623 60.5594L300.996 59.4226L301 59.434C300.683 59.1775 300.237 59.1942 299.745 59.5402L192.108 135.285C191.225 135.908 190.555 137.502 190.71 138.617L204.286 236.783C204.357 237.295 204.563 237.634 204.853 237.782L204.851 237.783L206.443 238.904L206.716 237.092L206.627 237.126L313.611 161.839C314.495 161.218 315.164 159.622 315.009 158.507Z" fill="#F4F5F8"/>
<path d="M315.3 163.021L207.662 238.766C206.832 239.35 206.12 239.012 205.974 237.964L192.399 139.798C192.244 138.683 192.912 137.087 193.797 136.466L301.434 60.7206C302.265 60.1361 302.976 60.4734 303.122 61.522L316.697 159.688C316.852 160.804 316.184 162.398 315.3 163.021Z" fill="#F4F5F8"/>
<path d="M301.795 62.5459L193.652 138.612L207.31 237.028L315.383 161.011L301.795 62.5459Z" fill="#161616"/>
<path d="M382.961 209.496L377.087 213.235L318.186 171.785C317.2 171.092 315.478 171.179 314.34 171.98L212.752 243.468C211.78 242.806 207.347 240.208 207.347 240.208L209.497 244.467C209.497 244.467 209.505 244.461 209.506 244.459C209.595 244.763 209.786 245.047 210.107 245.272L272.142 288.927C273.128 289.62 274.849 289.533 275.987 288.733L379.945 215.576C380.412 215.248 380.698 214.85 380.817 214.446L380.826 214.453L382.961 209.496Z" fill="#E9EBF3"/>
<path d="M382.053 210.673L275.51 285.648C274.344 286.469 272.58 286.558 271.57 285.847L207.992 241.107C206.982 240.396 207.109 239.155 208.275 238.334L314.818 163.359C315.984 162.539 317.748 162.45 318.758 163.16L382.336 207.901C383.346 208.611 383.219 209.853 382.053 210.673Z" fill="#F4F5F8"/>
<path d="M382.053 210.091L275.51 285.067C274.344 285.887 272.58 285.977 271.57 285.266L207.993 240.525C207.637 240.275 207.43 239.958 207.352 239.617C207.24 240.169 207.439 240.718 207.993 241.108L271.57 285.848C272.58 286.558 274.344 286.469 275.51 285.649L382.053 210.674C382.809 210.141 383.12 209.434 382.977 208.808C382.883 209.263 382.58 209.72 382.053 210.091Z" fill="white"/>
<path d="M333.045 202.371L336.427 199.991C336.699 199.799 336.664 199.465 336.351 199.245L332.359 196.436C332.045 196.215 331.571 196.191 331.299 196.382L327.917 198.763C327.645 198.954 327.679 199.287 327.993 199.508L331.985 202.317C332.299 202.537 332.773 202.562 333.045 202.371Z" fill="#28283C"/>
<path d="M327.821 206.046L331.203 203.666C331.475 203.475 331.441 203.141 331.128 202.92L327.135 200.111C326.822 199.891 326.347 199.867 326.075 200.058L322.693 202.438C322.421 202.629 322.456 202.963 322.769 203.183L326.762 205.993C327.075 206.214 327.549 206.237 327.821 206.046Z" fill="#28283C"/>
<path d="M322.598 209.721L325.98 207.342C326.251 207.15 326.217 206.816 325.904 206.596L321.912 203.786C321.598 203.565 321.124 203.541 320.852 203.732L317.47 206.113C317.198 206.304 317.232 206.638 317.546 206.858L321.538 209.668C321.852 209.888 322.326 209.912 322.598 209.721Z" fill="#28283C"/>
<path d="M315.374 206.687L318.756 204.307C319.028 204.115 318.994 203.781 318.68 203.56L315.329 201.202C315.015 200.981 314.541 200.957 314.269 201.148L310.887 203.528C310.615 203.72 310.65 204.054 310.963 204.274L314.315 206.633C314.628 206.853 315.103 206.878 315.374 206.687Z" fill="#28283C"/>
<path d="M310.151 210.362L313.533 207.982C313.805 207.79 313.771 207.456 313.458 207.236L310.106 204.878C309.793 204.657 309.318 204.633 309.046 204.824L305.664 207.204C305.393 207.396 305.427 207.73 305.741 207.95L309.091 210.308C309.405 210.529 309.879 210.553 310.151 210.362Z" fill="#28283C"/>
<path d="M304.928 214.038L308.31 211.657C308.581 211.466 308.547 211.132 308.234 210.911L304.883 208.554C304.569 208.333 304.095 208.309 303.823 208.5L300.441 210.88C300.169 211.072 300.204 211.405 300.517 211.626L303.868 213.984C304.182 214.205 304.656 214.229 304.928 214.038Z" fill="#28283C"/>
<path d="M299.704 217.713L303.086 215.333C303.358 215.141 303.324 214.807 303.01 214.587L299.659 212.229C299.345 212.008 298.871 211.984 298.599 212.175L295.217 214.554C294.945 214.746 294.98 215.081 295.293 215.301L298.644 217.659C298.959 217.88 299.433 217.904 299.704 217.713Z" fill="#28283C"/>
<path d="M294.481 221.389L297.864 219.009C298.135 218.817 298.101 218.483 297.787 218.262L294.436 215.904C294.123 215.684 293.648 215.66 293.377 215.851L289.995 218.231C289.723 218.423 289.757 218.757 290.07 218.978L293.422 221.335C293.736 221.556 294.21 221.58 294.481 221.389Z" fill="#28283C"/>
<path d="M289.258 225.065L292.64 222.685C292.912 222.493 292.877 222.159 292.564 221.938L289.213 219.58C288.899 219.359 288.424 219.336 288.153 219.527L284.771 221.906C284.499 222.098 284.533 222.432 284.847 222.652L288.198 225.011C288.512 225.231 288.986 225.256 289.258 225.065Z" fill="#28283C"/>
<path d="M284.034 228.74L287.417 226.36C287.688 226.168 287.653 225.834 287.34 225.614L283.989 223.256C283.676 223.035 283.201 223.011 282.929 223.202L279.547 225.582C279.276 225.774 279.31 226.108 279.624 226.328L282.974 228.686C283.288 228.907 283.763 228.931 284.034 228.74Z" fill="#28283C"/>
<path d="M278.811 232.416L282.194 230.035C282.465 229.844 282.431 229.51 282.118 229.289L278.766 226.932C278.453 226.711 277.978 226.687 277.707 226.878L274.324 229.258C274.053 229.45 274.087 229.783 274.401 230.004L277.751 232.362C278.065 232.583 278.54 232.606 278.811 232.416Z" fill="#28283C"/>
<path d="M273.588 236.092L276.97 233.712C277.241 233.52 277.207 233.186 276.894 232.966L273.543 230.608C273.229 230.387 272.755 230.362 272.483 230.553L269.101 232.933C268.829 233.125 268.864 233.459 269.177 233.68L272.528 236.038C272.842 236.259 273.316 236.283 273.588 236.092Z" fill="#28283C"/>
<path d="M268.365 239.767L271.747 237.387C272.019 237.195 271.985 236.861 271.671 236.64L268.32 234.282C268.007 234.062 267.532 234.038 267.261 234.229L263.879 236.608C263.607 236.8 263.641 237.135 263.954 237.356L267.306 239.713C267.619 239.934 268.093 239.958 268.365 239.767Z" fill="#28283C"/>
<path d="M307.678 204.947L311.06 202.567C311.331 202.375 311.297 202.041 310.984 201.821L307.633 199.463C307.319 199.242 306.845 199.218 306.573 199.409L303.191 201.789C302.919 201.981 302.953 202.315 303.267 202.535L306.618 204.893C306.932 205.114 307.406 205.138 307.678 204.947Z" fill="#28283C"/>
<path d="M312.98 201.216L316.362 198.836C316.633 198.645 316.599 198.31 316.285 198.09L312.934 195.731C312.621 195.511 312.146 195.487 311.875 195.678L308.493 198.058C308.221 198.249 308.255 198.584 308.569 198.805L311.92 201.162C312.234 201.383 312.708 201.407 312.98 201.216Z" fill="#28283C"/>
<path d="M318.289 197.479L325.573 192.352C325.845 192.161 325.811 191.828 325.498 191.607L322.146 189.249C321.833 189.028 321.358 189.004 321.087 189.195L313.802 194.321C313.531 194.513 313.565 194.846 313.879 195.067L317.229 197.425C317.543 197.646 318.017 197.67 318.289 197.479Z" fill="#28283C"/>
<path d="M314.578 192.934L320.489 188.775C320.761 188.583 320.727 188.25 320.413 188.029L317.062 185.67C316.748 185.449 316.274 185.427 316.003 185.618L310.091 189.777C309.819 189.969 309.853 190.302 310.167 190.523L313.518 192.881C313.832 193.102 314.306 193.125 314.578 192.934Z" fill="#28283C"/>
<path d="M302.455 208.622L305.837 206.242C306.109 206.051 306.075 205.717 305.761 205.496L302.41 203.138C302.097 202.917 301.621 202.893 301.35 203.084L297.968 205.463C297.696 205.655 297.731 205.99 298.044 206.21L301.395 208.568C301.709 208.79 302.184 208.813 302.455 208.622Z" fill="#28283C"/>
<path d="M297.231 212.298L300.614 209.918C300.885 209.726 300.851 209.392 300.538 209.171L297.186 206.814C296.873 206.593 296.398 206.569 296.126 206.76L292.744 209.139C292.473 209.331 292.507 209.666 292.821 209.886L296.171 212.244C296.485 212.465 296.96 212.489 297.231 212.298Z" fill="#28283C"/>
<path d="M292.008 215.973L295.39 213.593C295.661 213.401 295.627 213.067 295.314 212.846L291.963 210.488C291.649 210.268 291.175 210.244 290.903 210.435L287.521 212.814C287.249 213.006 287.284 213.34 287.597 213.56L290.948 215.919C291.262 216.139 291.736 216.164 292.008 215.973Z" fill="#28283C"/>
<path d="M286.785 219.648L290.167 217.268C290.439 217.076 290.405 216.743 290.091 216.522L286.74 214.164C286.426 213.943 285.952 213.919 285.681 214.11L282.298 216.491C282.027 216.682 282.061 217.016 282.374 217.237L285.725 219.594C286.039 219.816 286.513 219.839 286.785 219.648Z" fill="#28283C"/>
<path d="M281.562 223.325L284.945 220.945C285.216 220.753 285.182 220.42 284.868 220.199L281.518 217.841C281.204 217.62 280.729 217.596 280.458 217.787L277.076 220.167C276.804 220.359 276.838 220.693 277.151 220.913L280.503 223.271C280.817 223.492 281.291 223.516 281.562 223.325Z" fill="#28283C"/>
<path d="M276.338 227L279.72 224.62C279.992 224.428 279.957 224.094 279.644 223.874L276.293 221.516C275.979 221.295 275.505 221.271 275.233 221.462L271.851 223.841C271.579 224.033 271.614 224.368 271.927 224.588L275.278 226.946C275.592 227.167 276.067 227.191 276.338 227Z" fill="#28283C"/>
<path d="M271.115 230.676L274.498 228.295C274.769 228.104 274.735 227.77 274.421 227.549L271.07 225.192C270.757 224.971 270.282 224.947 270.01 225.138L266.628 227.517C266.356 227.709 266.391 228.043 266.704 228.264L270.056 230.622C270.37 230.843 270.844 230.867 271.115 230.676Z" fill="#28283C"/>
<path d="M265.892 234.352L269.275 231.972C269.546 231.78 269.512 231.446 269.199 231.225L265.847 228.867C265.534 228.647 265.059 228.622 264.787 228.814L261.405 231.193C261.133 231.385 261.168 231.719 261.481 231.939L264.833 234.298C265.147 234.518 265.62 234.543 265.892 234.352Z" fill="#28283C"/>
<path d="M260.669 238.027L264.051 235.647C264.323 235.455 264.288 235.121 263.975 234.901L260.624 232.543C260.311 232.322 259.836 232.298 259.564 232.489L256.182 234.869C255.91 235.061 255.944 235.395 256.258 235.616L259.609 237.973C259.923 238.194 260.397 238.218 260.669 238.027Z" fill="#28283C"/>
<path d="M251.383 244.561L258.763 239.368C259.035 239.176 259 238.842 258.687 238.621L255.336 236.263C255.023 236.043 254.547 236.019 254.276 236.21L246.896 241.403C246.624 241.595 246.659 241.928 246.972 242.149L250.324 244.507C250.638 244.728 251.112 244.752 251.383 244.561Z" fill="#28283C"/>
<path d="M241.214 237.405L247.442 233.022C247.714 232.83 247.68 232.496 247.367 232.276L244.015 229.918C243.702 229.697 243.228 229.673 242.957 229.864L236.727 234.248C236.455 234.439 236.49 234.773 236.804 234.994L240.154 237.351C240.468 237.572 240.942 237.596 241.214 237.405Z" fill="#28283C"/>
<path d="M293.308 207.903L296.69 205.523C296.962 205.332 296.927 204.997 296.614 204.776L293.263 202.419C292.949 202.198 292.474 202.174 292.203 202.365L288.821 204.745C288.549 204.937 288.583 205.271 288.897 205.492L292.248 207.85C292.562 208.07 293.036 208.094 293.308 207.903Z" fill="#28283C"/>
<path d="M298.661 204.136L302.043 201.756C302.315 201.564 302.281 201.23 301.967 201.01L298.616 198.651C298.302 198.431 297.828 198.406 297.556 198.597L294.174 200.977C293.902 201.169 293.937 201.503 294.25 201.724L297.602 204.082C297.915 204.303 298.39 204.327 298.661 204.136Z" fill="#28283C"/>
<path d="M304.013 200.369L307.396 197.989C307.667 197.797 307.633 197.464 307.32 197.243L303.969 194.885C303.655 194.664 303.18 194.64 302.909 194.831L299.527 197.211C299.255 197.403 299.289 197.736 299.603 197.957L302.954 200.315C303.268 200.536 303.742 200.559 304.013 200.369Z" fill="#28283C"/>
<path d="M309.367 196.602L312.749 194.222C313.021 194.03 312.987 193.696 312.673 193.475L309.322 191.117C309.009 190.897 308.534 190.872 308.262 191.064L304.88 193.443C304.608 193.635 304.642 193.969 304.956 194.189L308.307 196.548C308.621 196.768 309.095 196.793 309.367 196.602Z" fill="#28283C"/>
<path d="M288.085 211.578L291.468 209.199C291.739 209.007 291.704 208.672 291.391 208.452L288.04 206.093C287.727 205.873 287.251 205.849 286.98 206.04L283.598 208.42C283.326 208.611 283.361 208.945 283.674 209.166L287.025 211.524C287.339 211.745 287.814 211.769 288.085 211.578Z" fill="#28283C"/>
<path d="M282.861 215.254L286.244 212.875C286.515 212.683 286.481 212.349 286.167 212.129L282.816 209.77C282.503 209.55 282.028 209.526 281.756 209.717L278.374 212.097C278.103 212.288 278.137 212.622 278.45 212.843L281.801 215.201C282.115 215.422 282.59 215.445 282.861 215.254Z" fill="#28283C"/>
<path d="M277.639 218.93L281.021 216.55C281.292 216.359 281.258 216.025 280.945 215.804L277.593 213.446C277.28 213.226 276.805 213.202 276.534 213.393L273.152 215.772C272.88 215.964 272.914 216.298 273.228 216.518L276.579 218.877C276.893 219.097 277.367 219.121 277.639 218.93Z" fill="#28283C"/>
<path d="M272.415 222.605L275.797 220.226C276.069 220.034 276.034 219.7 275.721 219.48L272.37 217.121C272.057 216.901 271.582 216.876 271.31 217.067L267.928 219.447C267.657 219.639 267.691 219.973 268.004 220.194L271.355 222.552C271.669 222.772 272.143 222.796 272.415 222.605Z" fill="#28283C"/>
<path d="M267.191 226.281L270.574 223.901C270.845 223.709 270.811 223.376 270.497 223.155L267.146 220.797C266.833 220.576 266.358 220.552 266.087 220.744L262.705 223.123C262.433 223.315 262.467 223.648 262.781 223.869L266.132 226.227C266.446 226.448 266.92 226.472 267.191 226.281Z" fill="#28283C"/>
<path d="M261.968 229.956L265.351 227.576C265.622 227.385 265.588 227.05 265.275 226.83L261.924 224.471C261.61 224.251 261.136 224.227 260.864 224.418L257.482 226.798C257.21 226.989 257.244 227.323 257.558 227.544L260.909 229.902C261.223 230.122 261.697 230.147 261.968 229.956Z" fill="#28283C"/>
<path d="M256.745 233.631L260.127 231.252C260.399 231.06 260.365 230.726 260.051 230.506L256.7 228.147C256.386 227.927 255.912 227.903 255.64 228.094L252.258 230.473C251.986 230.665 252.021 230.999 252.334 231.22L255.686 233.578C255.999 233.798 256.474 233.822 256.745 233.631Z" fill="#28283C"/>
<path d="M251.522 237.307L254.904 234.928C255.175 234.736 255.141 234.402 254.827 234.181L251.476 231.823C251.163 231.602 250.688 231.579 250.417 231.77L247.035 234.149C246.763 234.341 246.797 234.675 247.11 234.896L250.462 237.254C250.776 237.474 251.25 237.498 251.522 237.307Z" fill="#28283C"/>
<path d="M246.299 240.983L249.681 238.604C249.953 238.412 249.918 238.078 249.605 237.857L246.254 235.499C245.941 235.279 245.465 235.254 245.194 235.445L241.812 237.825C241.54 238.016 241.574 238.351 241.888 238.571L245.239 240.93C245.553 241.15 246.027 241.174 246.299 240.983Z" fill="#28283C"/>
<path d="M296.058 198.811L299.441 196.432C299.712 196.24 299.678 195.906 299.365 195.686L296.013 193.327C295.7 193.107 295.225 193.082 294.954 193.273L291.572 195.653C291.3 195.845 291.334 196.179 291.648 196.4L294.999 198.758C295.313 198.978 295.787 199.002 296.058 198.811Z" fill="#28283C"/>
<path d="M301.255 195.153L304.637 192.773C304.909 192.581 304.874 192.248 304.561 192.027L301.209 189.669C300.896 189.448 300.421 189.424 300.15 189.615L296.768 191.996C296.496 192.187 296.53 192.521 296.844 192.742L300.195 195.099C300.509 195.32 300.983 195.344 301.255 195.153Z" fill="#28283C"/>
<path d="M306.453 191.497L309.835 189.117C310.107 188.925 310.073 188.591 309.759 188.371L306.407 186.012C306.094 185.792 305.62 185.768 305.348 185.959L301.966 188.339C301.694 188.53 301.728 188.864 302.042 189.085L305.393 191.443C305.707 191.663 306.181 191.688 306.453 191.497Z" fill="#28283C"/>
<path d="M311.65 187.839L315.032 185.46C315.304 185.268 315.27 184.934 314.957 184.714L311.605 182.355C311.292 182.135 310.817 182.111 310.546 182.302L307.163 184.681C306.892 184.873 306.926 185.207 307.24 185.428L310.59 187.786C310.904 188.006 311.378 188.03 311.65 187.839Z" fill="#28283C"/>
<path d="M306.305 184.078L309.688 181.699C309.959 181.507 309.925 181.173 309.612 180.952L308.504 180.173C308.19 179.952 307.716 179.928 307.445 180.119L304.062 182.5C303.79 182.691 303.825 183.024 304.138 183.245L305.246 184.025C305.56 184.245 306.034 184.269 306.305 184.078Z" fill="#28283C"/>
<path d="M299.523 188.851L302.906 186.471C303.177 186.28 303.143 185.945 302.829 185.725L301.722 184.945C301.408 184.724 300.933 184.701 300.662 184.892L297.28 187.272C297.008 187.463 297.042 187.797 297.356 188.018L298.464 188.797C298.778 189.018 299.252 189.042 299.523 188.851Z" fill="#28283C"/>
<path d="M294.348 192.493L297.73 190.113C298.002 189.921 297.967 189.587 297.654 189.367L296.546 188.588C296.232 188.367 295.758 188.343 295.486 188.534L292.104 190.915C291.833 191.106 291.867 191.44 292.18 191.66L293.288 192.439C293.602 192.66 294.076 192.684 294.348 192.493Z" fill="#28283C"/>
<path d="M289.172 196.136L292.554 193.756C292.826 193.564 292.791 193.23 292.478 193.01L291.37 192.23C291.056 192.009 290.582 191.986 290.311 192.177L286.928 194.557C286.657 194.748 286.691 195.082 287.005 195.303L288.112 196.082C288.426 196.303 288.901 196.327 289.172 196.136Z" fill="#28283C"/>
<path d="M283.997 199.778L287.379 197.398C287.65 197.206 287.617 196.872 287.304 196.652L286.195 195.872C285.882 195.651 285.407 195.627 285.136 195.818L281.753 198.199C281.482 198.39 281.516 198.724 281.829 198.945L282.937 199.724C283.251 199.945 283.725 199.969 283.997 199.778Z" fill="#28283C"/>
<path d="M255.101 220.111L258.484 217.731C258.755 217.539 258.721 217.205 258.407 216.985L257.3 216.205C256.986 215.984 256.512 215.96 256.24 216.151L252.858 218.532C252.586 218.723 252.62 219.057 252.934 219.277L254.042 220.057C254.356 220.278 254.83 220.302 255.101 220.111Z" fill="#28283C"/>
<path d="M249.927 223.753L253.309 221.374C253.581 221.182 253.546 220.848 253.233 220.628L252.125 219.847C251.811 219.627 251.337 219.603 251.065 219.794L247.683 222.174C247.412 222.365 247.446 222.699 247.76 222.92L248.867 223.7C249.181 223.92 249.655 223.944 249.927 223.753Z" fill="#28283C"/>
<path d="M244.751 227.395L248.133 225.015C248.405 224.823 248.37 224.49 248.057 224.269L246.949 223.489C246.635 223.269 246.161 223.245 245.89 223.436L242.508 225.816C242.236 226.007 242.27 226.341 242.584 226.561L243.691 227.341C244.005 227.562 244.48 227.586 244.751 227.395Z" fill="#28283C"/>
<path d="M239.575 231.036L242.957 228.657C243.229 228.465 243.195 228.131 242.882 227.91L241.773 227.131C241.459 226.91 240.985 226.886 240.713 227.077L237.331 229.458C237.06 229.649 237.094 229.983 237.407 230.203L238.515 230.983C238.829 231.203 239.303 231.227 239.575 231.036Z" fill="#28283C"/>
<path d="M290.835 202.487L294.217 200.108C294.489 199.916 294.454 199.581 294.141 199.361L290.79 197.003C290.476 196.782 290.002 196.758 289.73 196.949L286.348 199.329C286.076 199.521 286.11 199.855 286.424 200.075L289.775 202.433C290.089 202.654 290.563 202.678 290.835 202.487Z" fill="#28283C"/>
<path d="M285.611 206.162L288.994 203.781C289.265 203.59 289.231 203.256 288.917 203.035L285.566 200.678C285.253 200.457 284.778 200.433 284.507 200.624L281.125 203.004C280.853 203.196 280.887 203.53 281.2 203.75L284.552 206.108C284.866 206.329 285.339 206.353 285.611 206.162Z" fill="#28283C"/>
<path d="M280.388 209.838L283.771 207.459C284.042 207.267 284.008 206.933 283.695 206.713L280.343 204.354C280.03 204.134 279.555 204.11 279.284 204.301L275.902 206.681C275.63 206.872 275.664 207.206 275.978 207.427L279.329 209.785C279.643 210.005 280.117 210.029 280.388 209.838Z" fill="#28283C"/>
<path d="M275.165 213.513L278.547 211.134C278.819 210.942 278.785 210.608 278.471 210.388L275.12 208.029C274.806 207.809 274.332 207.784 274.06 207.975L270.678 210.355C270.406 210.547 270.441 210.881 270.754 211.102L274.106 213.46C274.419 213.681 274.894 213.705 275.165 213.513Z" fill="#28283C"/>
<path d="M269.942 217.189L273.324 214.81C273.596 214.618 273.562 214.284 273.248 214.064L269.897 211.705C269.584 211.485 269.109 211.46 268.838 211.651L265.456 214.031C265.184 214.222 265.218 214.557 265.531 214.778L268.883 217.136C269.197 217.356 269.671 217.38 269.942 217.189Z" fill="#28283C"/>
<path d="M264.719 220.864L268.101 218.485C268.373 218.293 268.338 217.958 268.025 217.738L264.674 215.38C264.36 215.159 263.885 215.135 263.614 215.326L260.232 217.706C259.96 217.898 259.994 218.232 260.308 218.452L263.659 220.81C263.973 221.031 264.447 221.055 264.719 220.864Z" fill="#28283C"/>
<path d="M259.495 224.54L262.878 222.161C263.149 221.969 263.114 221.636 262.801 221.415L259.45 219.057C259.137 218.836 258.662 218.812 258.39 219.003L255.008 221.383C254.736 221.575 254.771 221.908 255.084 222.129L258.435 224.487C258.749 224.708 259.224 224.732 259.495 224.54Z" fill="#28283C"/>
<path d="M254.272 228.216L257.655 225.837C257.926 225.645 257.892 225.311 257.579 225.09L254.227 222.732C253.914 222.512 253.439 222.488 253.167 222.679L249.785 225.058C249.514 225.25 249.548 225.584 249.862 225.804L253.212 228.163C253.526 228.383 254.001 228.407 254.272 228.216Z" fill="#28283C"/>
<path d="M249.049 231.891L252.432 229.512C252.704 229.32 252.669 228.986 252.356 228.766L249.004 226.407C248.691 226.187 248.216 226.162 247.945 226.353L244.563 228.733C244.29 228.925 244.325 229.259 244.638 229.48L247.99 231.838C248.304 232.059 248.778 232.082 249.049 231.891Z" fill="#28283C"/>
<path d="M320.696 202.94L330.657 195.931C330.929 195.74 330.895 195.405 330.582 195.185L327.23 192.826C326.917 192.606 326.442 192.581 326.171 192.772L316.21 199.782C315.938 199.973 315.972 200.307 316.286 200.528L319.637 202.886C319.951 203.106 320.425 203.131 320.696 202.94Z" fill="#28283C"/>
<path d="M256.528 248.096L266.49 241.086C266.761 240.895 266.727 240.561 266.414 240.341L263.062 237.983C262.749 237.762 262.274 237.737 262.002 237.928L252.042 244.938C251.77 245.13 251.804 245.464 252.118 245.684L255.468 248.042C255.782 248.263 256.257 248.287 256.528 248.096Z" fill="#28283C"/>
<path d="M277.417 241.516L280.799 239.136C281.071 238.944 281.036 238.61 280.723 238.39L276.731 235.581C276.418 235.36 275.943 235.336 275.671 235.527L272.289 237.908C272.017 238.099 272.052 238.433 272.365 238.653L276.357 241.462C276.671 241.683 277.145 241.707 277.417 241.516Z" fill="#28283C"/>
<path d="M315.347 214.823L320.757 211.017C321.029 210.826 320.995 210.492 320.681 210.272L316.688 207.462C316.375 207.241 315.9 207.217 315.628 207.408L310.22 211.215C309.948 211.406 309.982 211.74 310.296 211.961L314.288 214.77C314.602 214.99 315.076 215.014 315.347 214.823Z" fill="#28283C"/>
<path d="M282.45 237.975L287.859 234.169C288.13 233.978 288.097 233.644 287.783 233.423L283.79 230.614C283.477 230.393 283.003 230.369 282.731 230.56L277.322 234.367C277.05 234.558 277.084 234.891 277.397 235.112L281.39 237.921C281.704 238.142 282.178 238.165 282.45 237.975Z" fill="#28283C"/>
<path d="M307.811 220.127L313.221 216.32C313.492 216.129 313.459 215.795 313.145 215.575L309.152 212.765C308.839 212.544 308.365 212.52 308.094 212.711L302.684 216.518C302.412 216.709 302.446 217.043 302.76 217.263L306.752 220.073C307.066 220.293 307.54 220.318 307.811 220.127Z" fill="#28283C"/>
<path d="M308.057 212.738L284.54 229.287C284.247 229.493 284.247 229.826 284.54 230.031L288.61 232.896C288.902 233.101 289.375 233.101 289.667 232.896L313.185 216.346L308.057 212.738Z" fill="#28283C"/>
<path d="M262.819 248.18L259.052 250.831C258.829 250.988 258.857 251.261 259.114 251.442L260.747 252.591C261.004 252.772 261.393 252.792 261.616 252.635L265.383 249.984C265.606 249.828 265.578 249.554 265.321 249.373L263.688 248.223C263.431 248.043 263.042 248.024 262.819 248.18Z" fill="#28283C"/>
<path d="M268.086 244.474L264.318 247.126C264.095 247.282 264.124 247.555 264.38 247.736L266.014 248.885C266.27 249.066 266.659 249.086 266.882 248.93L270.65 246.278C270.872 246.121 270.844 245.848 270.587 245.667L268.954 244.517C268.697 244.337 268.308 244.317 268.086 244.474Z" fill="#28283C"/>
<path d="M273.309 240.798L269.542 243.449C269.319 243.606 269.347 243.88 269.604 244.061L271.238 245.209C271.494 245.39 271.883 245.41 272.106 245.253L275.873 242.603C276.096 242.446 276.068 242.172 275.81 241.991L274.177 240.842C273.92 240.661 273.532 240.642 273.309 240.798Z" fill="#28283C"/>
<path d="M265.201 242.444L261.433 245.095C261.211 245.252 261.239 245.526 261.496 245.707L263.129 246.855C263.386 247.037 263.775 247.057 263.997 246.901L267.765 244.249C267.987 244.093 267.959 243.819 267.702 243.638L266.07 242.488C265.812 242.308 265.423 242.288 265.201 242.444Z" fill="#28283C"/>
<path d="M211.914 143.391C212.171 143.391 212.442 143.298 212.702 143.116C213.502 142.553 213.996 141.28 213.806 140.275C213.714 139.792 213.479 139.428 213.144 139.25C212.774 139.053 212.318 139.11 211.89 139.411C211.092 139.974 210.596 141.248 210.787 142.252C210.878 142.735 211.113 143.099 211.448 143.277C211.593 143.353 211.751 143.391 211.914 143.391ZM212.677 139.576C212.792 139.576 212.901 139.602 213 139.655C213.226 139.775 213.388 140.031 213.453 140.375C213.61 141.203 213.192 142.261 212.521 142.733C212.196 142.962 211.859 143.012 211.593 142.872C211.365 142.752 211.204 142.496 211.139 142.151C210.982 141.324 211.401 140.266 212.072 139.793C212.276 139.65 212.484 139.576 212.677 139.576Z" fill="#42E8DF"/>
<path d="M207.607 146.422C207.864 146.422 208.135 146.329 208.396 146.147C209.195 145.584 209.69 144.311 209.499 143.306C209.408 142.823 209.172 142.459 208.838 142.281C208.468 142.084 208.01 142.142 207.584 142.442C206.785 143.005 206.289 144.279 206.48 145.283C206.572 145.766 206.807 146.13 207.142 146.308C207.286 146.384 207.444 146.422 207.607 146.422ZM208.371 142.607C208.486 142.607 208.594 142.633 208.693 142.687C208.92 142.806 209.081 143.062 209.146 143.406C209.303 144.234 208.885 145.292 208.214 145.764C207.89 145.993 207.551 146.043 207.286 145.904C207.058 145.783 206.898 145.528 206.832 145.182C206.676 144.356 207.094 143.297 207.766 142.824C207.969 142.681 208.178 142.607 208.371 142.607Z" fill="#42E8DF"/>
<path d="M202.35 148.263C202.524 149.18 203.263 149.504 203.999 148.986C204.735 148.468 205.191 147.304 205.017 146.386C204.843 145.469 204.105 145.146 203.368 145.664C202.632 146.182 202.176 147.346 202.35 148.263Z" fill="#42E8DF"/>
<path d="M284.926 90.3415L287.229 88.7206L287.051 87.4229L284.748 89.0438L284.926 90.3415Z" fill="#42E8DF"/>
<path d="M281.578 92.698L283.882 91.0777L283.703 89.7793L281.4 91.4003L281.578 92.698Z" fill="#42E8DF"/>
<path d="M288.24 88.0101L293.292 84.4556L293.113 83.1572L288.061 86.7124L288.24 88.0101Z" fill="#42E8DF"/>
<path d="M238.311 132.779C238.686 132.779 239.071 132.647 239.441 132.387L259.625 118.185C260.87 117.308 261.567 115.193 261.177 113.469C260.981 112.601 260.545 111.959 259.952 111.661C259.372 111.372 258.716 111.45 258.103 111.882L237.919 126.085C236.673 126.962 235.977 129.077 236.368 130.799C236.564 131.669 237 132.311 237.593 132.608C237.823 132.722 238.065 132.779 238.311 132.779ZM259.234 111.932C259.434 111.932 259.629 111.977 259.814 112.07C260.301 112.313 260.661 112.852 260.827 113.587C261.176 115.129 260.555 117.019 259.443 117.802L239.259 132.005C238.746 132.367 238.204 132.438 237.731 132.199C237.243 131.955 236.883 131.416 236.717 130.682C236.368 129.141 236.988 127.25 238.101 126.467L258.285 112.265C258.598 112.044 258.922 111.932 259.234 111.932Z" fill="#42E8DF"/>
<path d="M288.882 113.864L292.819 111.095L292.666 109.985L288.729 112.756L288.882 113.864Z" fill="#42E8DF"/>
<path d="M285.522 116.229L287.49 114.845L287.337 113.735L285.37 115.121L285.522 116.229Z" fill="#42E8DF"/>
<path d="M288.079 117.283L289.756 116.103L289.603 114.993L287.926 116.173L288.079 117.283Z" fill="#42E8DF"/>
<path d="M285.268 119.26L287.237 117.875L287.084 116.766L285.117 118.151L285.268 119.26Z" fill="#42E8DF"/>
<path d="M282.378 124.147L290.113 118.703L289.961 117.594L282.225 123.038L282.378 124.147Z" fill="#42E8DF"/>
<path d="M276.492 128.287L278.461 126.902L278.308 125.793L276.34 127.178L276.492 128.287Z" fill="#42E8DF"/>
<path d="M279.469 126.193L281.438 124.809L281.285 123.699L279.317 125.084L279.469 126.193Z" fill="#42E8DF"/>
<path d="M271.875 131.537L275.6 128.916L275.447 127.808L271.722 130.428L271.875 131.537Z" fill="#42E8DF"/>
<path d="M269.139 133.463L270.915 132.213L270.763 131.104L268.987 132.353L269.139 133.463Z" fill="#42E8DF"/>
<path d="M263.873 137.169L268.189 134.132L268.037 133.022L263.72 136.06L263.873 137.169Z" fill="#42E8DF"/>
<path d="M258.605 140.875L262.923 137.838L262.77 136.729L258.454 139.766L258.605 140.875Z" fill="#42E8DF"/>
<path d="M288.794 122.485L290.472 121.304L290.318 120.195L288.641 121.375L288.794 122.485Z" fill="#42E8DF"/>
<path d="M285.984 124.462L287.953 123.076L287.8 121.968L285.832 123.352L285.984 124.462Z" fill="#42E8DF"/>
<path d="M286.576 126.898L290.829 123.905L290.676 122.796L286.424 125.789L286.576 126.898Z" fill="#42E8DF"/>
<path d="M283.729 128.901L285.698 127.517L285.545 126.407L283.578 127.792L283.729 128.901Z" fill="#42E8DF"/>
<path d="M280.869 130.914L282.837 129.529L282.684 128.42L280.716 129.805L280.869 130.914Z" fill="#42E8DF"/>
<path d="M276.25 134.164L279.975 131.543L279.822 130.435L276.097 133.055L276.25 134.164Z" fill="#42E8DF"/>
<path d="M274.049 135.713L275.375 134.78L275.223 133.671L273.897 134.604L274.049 135.713Z" fill="#42E8DF"/>
<path d="M269.832 138.681L273.094 136.386L272.941 135.276L269.68 137.572L269.832 138.681Z" fill="#42E8DF"/>
<path d="M268.947 139.304L272.208 137.009L272.056 135.899L268.794 138.195L268.947 139.304Z" fill="#42E8DF"/>
<path d="M276.045 137.16L278.014 135.775L277.861 134.666L275.893 136.051L276.045 137.16Z" fill="#42E8DF"/>
<path d="M273.185 139.175L275.153 137.79L275 136.681L273.032 138.066L273.185 139.175Z" fill="#42E8DF"/>
<path d="M268.567 142.424L272.292 139.804L272.14 138.694L268.415 141.316L268.567 142.424Z" fill="#42E8DF"/>
<path d="M289.411 127.755L291.187 126.506L291.034 125.396L289.258 126.646L289.411 127.755Z" fill="#42E8DF"/>
<path d="M284.145 131.462L288.462 128.425L288.31 127.315L283.993 130.353L284.145 131.462Z" fill="#42E8DF"/>
<path d="M278.877 135.168L283.194 132.131L283.042 131.021L278.725 134.059L278.877 135.168Z" fill="#42E8DF"/>
<path d="M279.198 137.795L281.167 136.41L281.014 135.301L279.046 136.686L279.198 137.795Z" fill="#42E8DF"/>
<path d="M274.581 141.044L278.306 138.424L278.153 137.314L274.428 139.935L274.581 141.044Z" fill="#42E8DF"/>
<path d="M289.577 130.492L291.545 129.107L291.392 127.998L289.424 129.383L289.577 130.492Z" fill="#42E8DF"/>
<path d="M286.715 132.506L288.684 131.121L288.531 130.012L286.563 131.397L286.715 132.506Z" fill="#42E8DF"/>
<path d="M282.097 135.755L285.822 133.135L285.669 132.025L281.945 134.646L282.097 135.755Z" fill="#42E8DF"/>
<path d="M287.547 134.771L291.864 131.734L291.712 130.625L287.395 133.663L287.547 134.771Z" fill="#42E8DF"/>
<path d="M285.272 136.373L286.598 135.44L286.445 134.331L285.119 135.264L285.272 136.373Z" fill="#42E8DF"/>
<path d="M282.991 137.978L284.317 137.045L284.165 135.936L282.839 136.869L282.991 137.978Z" fill="#42E8DF"/>
<path d="M278.775 140.944L282.036 138.649L281.884 137.54L278.622 139.836L278.775 140.944Z" fill="#42E8DF"/>
<path d="M290.292 135.693L292.261 134.309L292.108 133.199L290.14 134.584L290.292 135.693Z" fill="#42E8DF"/>
<path d="M285.674 138.942L289.399 136.322L289.247 135.213L285.522 137.834L285.674 138.942Z" fill="#42E8DF"/>
<path d="M294.675 135.461L296.001 134.528L295.849 133.419L294.523 134.352L294.675 135.461Z" fill="#42E8DF"/>
<path d="M290.459 138.428L293.721 136.133L293.569 135.023L290.307 137.319L290.459 138.428Z" fill="#42E8DF"/>
<path d="M286.152 141.46L289.413 139.164L289.261 138.056L285.999 140.351L286.152 141.46Z" fill="#42E8DF"/>
<path d="M289.083 145.921L296.818 140.477L296.666 139.367L288.93 144.811L289.083 145.921Z" fill="#42E8DF"/>
<path d="M286.108 148.013L288.076 146.629L287.923 145.52L285.956 146.905L286.108 148.013Z" fill="#42E8DF"/>
<path d="M283.027 150.181L284.996 148.797L284.843 147.688L282.875 149.073L283.027 150.181Z" fill="#42E8DF"/>
<path d="M278.411 153.431L282.136 150.81L281.983 149.7L278.258 152.322L278.411 153.431Z" fill="#42E8DF"/>
<path d="M280.885 154.542L282.854 153.157L282.701 152.048L280.732 153.433L280.885 154.542Z" fill="#42E8DF"/>
<path d="M276.267 157.791L279.992 155.17L279.84 154.061L276.115 156.682L276.267 157.791Z" fill="#42E8DF"/>
<path d="M292.37 146.459L293.695 145.526L293.543 144.417L292.217 145.35L292.37 146.459Z" fill="#42E8DF"/>
<path d="M288.153 149.426L291.415 147.131L291.262 146.021L288.001 148.317L288.153 149.426Z" fill="#42E8DF"/>
<path d="M283.846 152.459L287.107 150.163L286.955 149.054L283.693 151.349L283.846 152.459Z" fill="#42E8DF"/>
<path d="M286.31 153.575L290.563 150.584L290.411 149.475L286.158 152.467L286.31 153.575Z" fill="#42E8DF"/>
<path d="M283.464 155.579L285.433 154.194L285.28 153.085L283.312 154.47L283.464 155.579Z" fill="#42E8DF"/>
<path d="M280.602 157.593L282.571 156.207L282.418 155.099L280.451 156.483L280.602 157.593Z" fill="#42E8DF"/>
<path d="M275.984 160.842L279.709 158.22L279.557 157.112L275.832 159.734L275.984 160.842Z" fill="#42E8DF"/>
<path d="M273.03 162.922L274.999 161.537L274.846 160.428L272.878 161.813L273.03 162.922Z" fill="#42E8DF"/>
<path d="M268.412 166.171L272.137 163.55L271.984 162.44L268.26 165.062L268.412 166.171Z" fill="#42E8DF"/>
<path d="M282.579 161.908L284.548 160.523L284.395 159.414L282.427 160.799L282.579 161.908Z" fill="#42E8DF"/>
<path d="M277.96 165.157L281.686 162.536L281.533 161.428L277.808 164.049L277.96 165.157Z" fill="#42E8DF"/>
<path d="M292.861 154.673L294.829 153.287L294.676 152.179L292.708 153.563L292.861 154.673Z" fill="#42E8DF"/>
<path d="M289.999 156.686L291.968 155.302L291.815 154.192L289.847 155.578L289.999 156.686Z" fill="#42E8DF"/>
<path d="M285.381 159.936L289.105 157.314L288.953 156.205L285.229 158.827L285.381 159.936Z" fill="#42E8DF"/>
<path d="M289.145 154.434L290.921 153.185L290.769 152.075L288.993 153.325L289.145 154.434Z" fill="#42E8DF"/>
<path d="M283.878 158.139L288.195 155.102L288.043 153.993L283.726 157.031L283.878 158.139Z" fill="#42E8DF"/>
<path d="M278.612 161.845L282.929 158.809L282.776 157.699L278.459 160.737L278.612 161.845Z" fill="#42E8DF"/>
<path d="M267.246 169.844L269.214 168.46L269.061 167.351L267.093 168.735L267.246 169.844Z" fill="#42E8DF"/>
<path d="M262.627 173.095L266.353 170.474L266.2 169.365L262.475 171.987L262.627 173.095Z" fill="#42E8DF"/>
<path d="M274.514 164.73L277.775 162.435L277.623 161.325L274.361 163.621L274.514 164.73Z" fill="#42E8DF"/>
<path d="M270.206 167.762L273.468 165.466L273.315 164.357L270.053 166.653L270.206 167.762Z" fill="#42E8DF"/>
<g opacity="0.152066">
<path d="M291.869 158.201L293.212 157.257L293.058 156.133L291.715 157.078L291.869 158.201Z" fill="#42E8DF"/>
<path d="M289.561 159.826L290.903 158.882L290.749 157.758L289.406 158.703L289.561 159.826Z" fill="#42E8DF"/>
<path d="M285.291 162.83L288.594 160.506L288.439 159.383L285.137 161.707L285.291 162.83Z" fill="#42E8DF"/>
<path d="M284.394 163.461L287.696 161.137L287.541 160.014L284.24 162.338L284.394 163.461Z" fill="#42E8DF"/>
</g>
<mask id="mask7_0_1" style="mask-type:luminance" maskUnits="userSpaceOnUse" x="120" y="112" width="250" height="225">
<path d="M369.999 112.001H120.002V336.999H369.999V112.001Z" fill="white"/>
</mask>
<g mask="url(#mask7_0_1)">
<path d="M289.46 272.872V179.258C289.46 157.827 272.086 140.453 250.655 140.453C229.225 140.453 211.851 157.827 211.851 179.258V245.639" stroke="#DCE0E4" stroke-width="11.9999" stroke-miterlimit="10" stroke-linecap="round"/>
<path d="M173.157 120.946H209.01C216.243 120.946 222.105 126.81 222.105 134.043V169.895C222.105 177.128 216.243 182.992 209.01 182.992H173.157C165.924 182.992 160.06 177.128 160.06 169.895V134.043C160.06 126.81 165.924 120.946 173.157 120.946Z" fill="#002189"/>
<path d="M169.961 151.968C169.961 140.303 179.418 130.846 191.084 130.846C202.75 130.846 212.207 140.303 212.207 151.968C212.207 163.634 202.75 173.091 191.084 173.091C179.418 173.091 169.961 163.634 169.961 151.968Z" fill="white"/>
<path d="M177.58 144.295L194.271 159.151L199.378 152.95" stroke="#006EF2" stroke-width="3.19997" stroke-linecap="round" stroke-linejoin="round"/>
<path d="M250.654 315.386C216.446 315.386 188.713 287.653 188.713 253.444C188.713 219.235 216.446 191.503 250.654 191.503C284.864 191.503 312.596 219.235 312.596 253.444C312.596 287.653 284.864 315.386 250.654 315.386Z" fill="#006EF2"/>
<path d="M255.934 255.274L256.274 256.733L261.164 277.854H264.137L258.906 255.274C262.633 252.67 265.072 248.344 265.072 243.45C265.072 235.488 258.617 229.032 250.655 229.032C250.154 229.032 249.657 229.057 249.169 229.106C256.435 229.856 262.099 235.993 262.099 243.45C262.099 247.16 260.699 250.539 258.401 253.093C257.664 253.913 256.837 254.645 255.934 255.274Z" fill="#00B1FF"/>
<path d="M236.239 243.449C236.239 247.155 237.637 250.533 239.931 253.088C240.668 253.908 241.496 254.645 242.403 255.274C244.361 256.645 246.672 257.539 249.168 257.796C249.657 257.846 250.154 257.87 250.655 257.87C252.646 257.87 254.548 257.465 256.274 256.732L255.935 255.274C256.838 254.645 257.666 253.912 258.403 253.092C260.701 250.538 262.099 247.159 262.099 243.449C262.099 235.992 256.435 229.856 249.168 229.106C241.906 229.852 236.239 235.988 236.239 243.449Z" fill="#002189"/>
<path d="M256.274 256.732L255.935 255.274C256.838 254.645 257.666 253.912 258.403 253.092L255.144 239.02H246.168L242.403 255.274L242.064 256.736L237.174 277.853H261.164L256.274 256.732Z" fill="#002189"/>
<g opacity="0.01">
<path d="M252.693 297.063L254.347 298.634L244.611 308.883L242.957 307.311L252.693 297.063Z" fill="#52606C"/>
<path d="M242.208 299.063L256.716 303.651L256.028 305.827L241.52 301.239L242.208 299.063Z" fill="#52606C"/>
</g>
<g opacity="0.01">
<path d="M223.693 255.712L225.971 255.858L224.941 271.911L222.663 271.765L223.693 255.712Z" fill="#52606C"/>
<path d="M231.257 260.283L231.969 262.451L217.881 267.085L217.169 264.918L231.257 260.283Z" fill="#52606C"/>
</g>
<g opacity="0.01">
<path d="M195.357 237.528L199.708 251.381L197.532 252.064L193.18 238.211L195.357 237.528Z" fill="#52606C"/>
<path d="M199.593 240.119L201.202 241.735L192.499 250.393L190.89 248.776L199.593 240.119Z" fill="#52606C"/>
</g>
<g opacity="0.01">
<path d="M193.718 265.799L194.616 267.896L180.952 273.747L180.054 271.65L193.718 265.799Z" fill="#52606C"/>
<path d="M184.32 263.572L193.213 271.621L191.682 273.312L182.789 265.264L184.32 263.572Z" fill="#52606C"/>
</g>
<g opacity="0.01">
<path d="M181.004 284.631L182.034 300.261L179.758 300.41L178.728 284.781L181.004 284.631Z" fill="#52606C"/>
<path d="M176.883 287.364L188.489 295.086L187.225 296.986L175.619 289.264L176.883 287.364Z" fill="#52606C"/>
</g>
<g opacity="0.01">
<path d="M153.545 272.584L165.243 275.487L164.693 277.702L152.995 274.798L153.545 272.584Z" fill="#52606C"/>
<path d="M162.219 269.193L164.18 270.359L157.862 280.983L155.901 279.817L162.219 269.193Z" fill="#52606C"/>
</g>
<g opacity="0.01">
<path d="M162.674 246.077L169.414 257.262L167.46 258.441L160.72 247.254L162.674 246.077Z" fill="#52606C"/>
<path d="M172.387 250.291L172.665 252.555L158.951 254.239L158.673 251.975L172.387 250.291Z" fill="#52606C"/>
</g>
<g opacity="0.01">
<path d="M171.675 219.085L173.881 219.223L173.11 232.021L170.905 231.882L171.675 219.085Z" fill="#52606C"/>
<path d="M178.814 222.624L179.416 224.825L165.046 228.756L164.444 226.555L178.814 222.624Z" fill="#52606C"/>
</g>
<g opacity="0.01">
<path d="M128.238 216.228L140.125 225.541L138.717 227.337L126.831 218.024L128.238 216.228Z" fill="#52606C"/>
<path d="M133.943 213.951L135.301 229.349L133.029 229.549L131.671 214.152L133.943 213.951Z" fill="#52606C"/>
</g>
<g opacity="0.01">
<path d="M120.707 250.882L133.82 255.158L133.113 257.327L120 253.051L120.707 250.882Z" fill="#52606C"/>
<path d="M129.738 248.413L131.399 249.978L123.1 258.781L121.441 257.216L129.738 248.413Z" fill="#52606C"/>
</g>
<g opacity="0.01">
<path d="M134.195 276.159L136.134 277.361L128.807 289.183L126.868 287.981L134.195 276.159Z" fill="#52606C"/>
<path d="M123.92 278.794L141.152 283.447L140.557 285.65L123.327 280.997L123.92 278.794Z" fill="#52606C"/>
</g>
<g opacity="0.01">
<path d="M135.595 303.48L152.645 308.144L152.042 310.345L134.993 305.68L135.595 303.48Z" fill="#52606C"/>
<path d="M147.033 300.565L149.083 301.567L143.497 312.995L141.447 311.993L147.033 300.565Z" fill="#52606C"/>
</g>
<g opacity="0.01">
<path d="M352.923 295.155L354.6 296.701L345.651 306.41L343.974 304.864L352.923 295.155Z" fill="#52606C"/>
<path d="M345.247 296.617L357.988 304.2L356.821 306.161L344.08 298.577L345.247 296.617Z" fill="#52606C"/>
</g>
<g opacity="0.01">
<path d="M308.351 261.122L309.147 263.261L295.896 268.192L295.1 266.053L308.351 261.122Z" fill="#52606C"/>
<path d="M303.459 258.997L306.046 271.814L303.809 272.267L301.222 259.448L303.459 258.997Z" fill="#52606C"/>
</g>
<g opacity="0.01">
<path d="M326.876 249.062L329.073 249.678L324.636 265.517L322.439 264.902L326.876 249.062Z" fill="#52606C"/>
<path d="M334.034 255.132L334.125 257.411L321.8 257.904L321.709 255.625L334.034 255.132Z" fill="#52606C"/>
</g>
<g opacity="0.01">
<path d="M297.011 224.526L303.356 243.264L301.196 243.996L294.851 225.258L297.011 224.526Z" fill="#52606C"/>
<path d="M304.207 229.255L305.642 231.029L295.289 239.409L293.854 237.636L304.207 229.255Z" fill="#52606C"/>
</g>
<g opacity="0.01">
<path d="M267.778 183.814L269.228 200.757L266.956 200.952L265.506 184.009L267.778 183.814Z" fill="#52606C"/>
<path d="M260.9 187.289L273.521 197.572L272.079 199.341L259.459 189.058L260.9 187.289Z" fill="#52606C"/>
</g>
<g opacity="0.01">
<path d="M305.39 175.514L307.31 176.747L299.846 188.364L297.926 187.131L305.39 175.514Z" fill="#52606C"/>
<path d="M299.03 173.341L307.187 187.498L305.21 188.637L297.053 174.48L299.03 173.341Z" fill="#52606C"/>
</g>
<g opacity="0.01">
<path d="M329.64 182.547L331.18 195.165L328.916 195.441L327.376 182.823L329.64 182.547Z" fill="#52606C"/>
<path d="M334.025 183.79L335.46 185.563L325.763 193.412L324.328 191.639L334.025 183.79Z" fill="#52606C"/>
</g>
<g opacity="0.01">
<path d="M360.063 203.845L362.215 204.602L356.829 219.913L354.677 219.156L360.063 203.845Z" fill="#52606C"/>
<path d="M351.271 210.478L365.661 212.327L365.371 214.589L350.981 212.741L351.271 210.478Z" fill="#52606C"/>
</g>
<g opacity="0.01">
<path d="M360.384 258.144L364.462 272.07L362.272 272.711L358.194 258.785L360.384 258.144Z" fill="#52606C"/>
<path d="M353.534 263.572L370 264.801L369.83 267.076L353.364 265.847L353.534 263.572Z" fill="#52606C"/>
</g>
<path d="M344.707 232.158C344.707 232.158 344.707 232.158 344.707 232.158C344.707 232.158 344.707 232.157 344.707 232.157C344.707 232.157 344.708 232.158 344.708 232.158C344.708 232.158 344.707 232.158 344.707 232.158Z" fill="#006EF2"/>
<path d="M344.322 235.147C344.535 233.496 343.369 231.985 341.718 231.772C343.369 231.985 344.88 230.819 345.093 229.168C344.88 230.819 346.046 232.33 347.697 232.543C346.046 232.33 344.535 233.496 344.322 235.147Z" fill="#006EF2"/>
<path d="M305.028 146.802C307.263 142.987 305.981 138.082 302.165 135.847C305.981 138.082 310.886 136.8 313.121 132.984C310.886 136.8 312.168 141.705 315.984 143.94C312.168 141.705 307.263 142.987 305.028 146.802Z" fill="#006EF2"/>
</g>
</svg>
