<svg width="132" height="49" viewBox="0 0 132 49" fill="none" xmlns="http://www.w3.org/2000/svg">
<path d="M48.2271 23.2321C47.7628 23.0464 47.6235 22.7247 47.8092 22.267L52.6147 10.6064C52.7806 10.2217 53.0525 10.0293 53.4306 10.0293H53.4803C53.8584 10.0492 54.1171 10.2416 54.2564 10.6064L59.1117 22.267C59.2974 22.7247 59.1647 23.0464 58.7137 23.2321C58.256 23.4112 57.9377 23.2785 57.7586 22.8341L56.5945 20.0483H50.2965L49.1723 22.8341C48.9865 23.2852 48.6715 23.4178 48.2271 23.2321ZM50.8736 18.5858H55.9975L53.4007 12.3475L50.8736 18.5858ZM64.1742 23.2918C63.3384 23.2918 62.6851 23.1194 62.2142 22.7744C61.7432 22.4229 61.4481 21.8956 61.3287 21.1925C61.2889 20.9537 61.3353 20.7647 61.468 20.6254C61.6073 20.4861 61.7996 20.4164 62.045 20.4164C62.2772 20.4164 62.4463 20.4761 62.5524 20.5955C62.6652 20.7149 62.7548 20.894 62.8211 21.1328C62.894 21.4047 63.0333 21.5905 63.239 21.69C63.4446 21.7828 63.7563 21.8293 64.1742 21.8293H67.4376C67.9881 21.8293 68.3596 21.7364 68.5519 21.5507C68.7509 21.3583 68.8504 20.9802 68.8504 20.4164C68.8504 19.8526 68.7509 19.4746 68.5519 19.2822C68.3596 19.0899 67.9881 18.9937 67.4376 18.9937H64.2239C63.302 18.9937 62.6088 18.7648 62.1445 18.3072C61.6802 17.8429 61.4481 17.1497 61.4481 16.2278C61.4481 15.2859 61.6736 14.5861 62.1246 14.1284C62.5823 13.6641 63.2821 13.432 64.2239 13.432H67.3381C68.8769 13.432 69.7691 14.092 70.0145 15.4119C70.0543 15.6573 70.0045 15.8464 69.8652 15.979C69.7326 16.1117 69.5435 16.178 69.2981 16.178C69.0726 16.178 68.9035 16.1183 68.7907 15.9989C68.6779 15.8795 68.5917 15.7104 68.532 15.4915C68.4657 15.2594 68.3397 15.1035 68.1539 15.0239C67.9749 14.9377 67.7029 14.8945 67.3381 14.8945H64.2239C63.6933 14.8945 63.3418 14.9808 63.1693 15.1532C62.9969 15.3257 62.9106 15.6839 62.9106 16.2278C62.9106 16.7319 63.0002 17.0768 63.1793 17.2625C63.365 17.4416 63.7132 17.5311 64.2239 17.5311H67.4376C68.406 17.5311 69.1257 17.7699 69.5966 18.2475C70.0742 18.725 70.313 19.448 70.313 20.4164C70.313 21.3848 70.0742 22.1078 69.5966 22.5854C69.1257 23.0563 68.406 23.2918 67.4376 23.2918H64.1742ZM75.9891 23.2918C75.1533 23.2918 74.5 23.1194 74.029 22.7744C73.5581 22.4229 73.2629 21.8956 73.1435 21.1925C73.1037 20.9537 73.1502 20.7647 73.2828 20.6254C73.4221 20.4861 73.6145 20.4164 73.8599 20.4164C74.0921 20.4164 74.2612 20.4761 74.3673 20.5955C74.4801 20.7149 74.5696 20.894 74.636 21.1328C74.7089 21.4047 74.8482 21.5905 75.0538 21.69C75.2594 21.7828 75.5712 21.8293 75.9891 21.8293H79.2525C79.803 21.8293 80.1744 21.7364 80.3668 21.5507C80.5658 21.3583 80.6653 20.9802 80.6653 20.4164C80.6653 19.8526 80.5658 19.4746 80.3668 19.2822C80.1744 19.0899 79.803 18.9937 79.2525 18.9937H76.0388C75.1168 18.9937 74.4237 18.7648 73.9594 18.3072C73.4951 17.8429 73.2629 17.1497 73.2629 16.2278C73.2629 15.2859 73.4885 14.5861 73.9395 14.1284C74.3972 13.6641 75.0969 13.432 76.0388 13.432H79.153C80.6918 13.432 81.5839 14.092 81.8293 15.4119C81.8691 15.6573 81.8194 15.8464 81.6801 15.979C81.5474 16.1117 81.3584 16.178 81.113 16.178C80.8875 16.178 80.7183 16.1183 80.6056 15.9989C80.4928 15.8795 80.4066 15.7104 80.3469 15.4915C80.2806 15.2594 80.1545 15.1035 79.9688 15.0239C79.7897 14.9377 79.5178 14.8945 79.153 14.8945H76.0388C75.5082 14.8945 75.1566 14.9808 74.9842 15.1532C74.8117 15.3257 74.7255 15.6839 74.7255 16.2278C74.7255 16.7319 74.815 17.0768 74.9941 17.2625C75.1799 17.4416 75.5281 17.5311 76.0388 17.5311H79.2525C80.2209 17.5311 80.9405 17.7699 81.4115 18.2475C81.889 18.725 82.1278 19.448 82.1278 20.4164C82.1278 21.3848 81.889 22.1078 81.4115 22.5854C80.9405 23.0563 80.2209 23.2918 79.2525 23.2918H75.9891ZM86.0031 11.7505C85.4327 11.7505 85.1475 11.4587 85.1475 10.875V10.3377C85.1475 9.7673 85.4327 9.48209 86.0031 9.48209H86.5404C87.0909 9.48209 87.3662 9.7673 87.3662 10.3377V10.875C87.3662 11.4587 87.0909 11.7505 86.5404 11.7505H86.0031ZM86.2717 23.3018C85.7809 23.3018 85.5355 23.0563 85.5355 22.5655V14.1682C85.5355 13.684 85.7809 13.4419 86.2717 13.4419C86.7559 13.4419 86.998 13.684 86.998 14.1682V22.5655C86.998 23.0563 86.7559 23.3018 86.2717 23.3018ZM93.354 27.2815C92.558 27.2815 91.9379 27.119 91.4934 26.794C91.049 26.469 90.7705 25.9715 90.6577 25.3016C90.6179 25.0562 90.661 24.8638 90.787 24.7245C90.9197 24.5852 91.1121 24.5156 91.3641 24.5156C91.5896 24.5156 91.7554 24.5753 91.8616 24.6947C91.9677 24.8141 92.0539 24.9932 92.1203 25.2319C92.1866 25.4575 92.3126 25.61 92.4983 25.6896C92.6907 25.7758 92.9759 25.8189 93.354 25.8189H97.0551C97.5791 25.8189 97.9241 25.7294 98.0899 25.5503C98.2623 25.3779 98.3486 25.0329 98.3486 24.5156V22.0282C98.0103 22.4395 97.5725 22.7545 97.0352 22.9734C96.498 23.1923 95.8679 23.3018 95.1449 23.3018H94.3887C93.0953 23.3018 92.1368 22.9933 91.5133 22.3765C90.8965 21.7596 90.5881 20.8078 90.5881 19.521V17.2326C90.5881 15.926 90.8932 14.9675 91.5034 14.3573C92.1203 13.747 93.082 13.4419 94.3887 13.4419H96.0204C96.551 13.4419 97.0087 13.5182 97.3934 13.6708C97.7781 13.8167 98.0965 14.0455 98.3486 14.3573V14.1682C98.3486 13.684 98.594 13.4419 99.0848 13.4419C99.569 13.4419 99.8111 13.684 99.8111 14.1682V24.5156C99.8111 25.4575 99.5856 26.1539 99.1346 26.6049C98.6902 27.056 97.997 27.2815 97.0551 27.2815H93.354ZM94.3887 21.8392H95.1449C96.0735 21.8392 96.8396 21.7132 97.4432 21.4611C98.0468 21.2024 98.3486 20.8045 98.3486 20.2672V16.5063C98.3486 15.8961 98.1496 15.4782 97.7516 15.2527C97.3536 15.0206 96.7766 14.9045 96.0204 14.9045H94.3887C93.4999 14.9045 92.8864 15.067 92.5481 15.392C92.2164 15.717 92.0506 16.3306 92.0506 17.2326V19.521C92.0506 20.3965 92.2164 21.0035 92.5481 21.3417C92.8797 21.6734 93.4933 21.8392 94.3887 21.8392ZM104.363 23.3018C103.872 23.3018 103.627 23.0563 103.627 22.5655V14.1682C103.627 13.684 103.872 13.4419 104.363 13.4419C104.847 13.4419 105.09 13.684 105.09 14.1682V14.7055C105.766 13.8631 106.837 13.4419 108.303 13.4419H108.86C110.154 13.4419 111.109 13.7504 111.726 14.3672C112.343 14.9841 112.651 15.9392 112.651 17.2326V22.5655C112.651 23.0563 112.409 23.3018 111.925 23.3018C111.434 23.3018 111.189 23.0563 111.189 22.5655V17.2326C111.189 16.3372 111.019 15.727 110.681 15.402C110.349 15.0703 109.743 14.9045 108.86 14.9045H108.303C107.428 14.9045 106.695 15.0206 106.104 15.2527C105.514 15.4782 105.176 15.8364 105.09 16.3273V22.5655C105.09 23.0563 104.847 23.3018 104.363 23.3018Z" fill="white"/>
<path d="M116.049 38.6084C115.803 38.6084 115.617 38.5487 115.491 38.4293C115.372 38.3033 115.312 38.1176 115.312 37.8721V26.0821C115.312 25.8301 115.372 25.6444 115.491 25.525C115.617 25.4056 115.803 25.3459 116.049 25.3459C116.294 25.3459 116.476 25.4056 116.596 25.525C116.715 25.6444 116.775 25.8301 116.775 26.0821V37.8721C116.775 38.1176 116.715 38.3033 116.596 38.4293C116.476 38.5487 116.294 38.6084 116.049 38.6084ZM124.733 38.6084C124.494 38.6084 124.311 38.5487 124.185 38.4293C124.059 38.3033 123.996 38.1209 123.996 37.8821V26.8084H120.017C119.778 26.8084 119.595 26.7488 119.469 26.6294C119.343 26.5033 119.28 26.3209 119.28 26.0821C119.28 25.8434 119.343 25.661 119.469 25.5349C119.595 25.4089 119.778 25.3459 120.017 25.3459H129.449C129.687 25.3459 129.867 25.4089 129.986 25.5349C130.112 25.661 130.175 25.8434 130.175 26.0821C130.175 26.3209 130.112 26.5033 129.986 26.6294C129.867 26.7488 129.687 26.8084 129.449 26.8084H125.459V37.8821C125.459 38.1076 125.396 38.2867 125.27 38.4194C125.144 38.5454 124.965 38.6084 124.733 38.6084Z" fill="white"/>
<path d="M46.9831 0.333008H0V48.5208H46.9831V0.333008Z" fill="white"/>
<path d="M14.5326 25.0989L17.4553 23.37L15.8239 20.4735H31.167L23.4979 34.1019L21.8665 31.2003L18.9438 32.9342L23.4979 41.0224L37.0124 17.0107H9.97852L14.5326 25.0989Z" fill="#414042"/>
</svg>
