<svg width="40" height="40" viewBox="0 0 40 40" fill="none" xmlns="http://www.w3.org/2000/svg">
<rect width="40" height="40" rx="4" fill="white"/>
<path d="M28.99 17.71C28.65 17.57 28.2 17.5 27.64 17.5H22.36C20.62 17.5 20 18.12 20 19.88V27.62C20 28.2 20.07 28.65 20.22 29C20.53 29.72 21.19 30 22.36 30H27.64C29.38 30 30 29.37 30 27.62V19.88C30 18.69 29.72 18.02 28.99 17.71ZM26 27.75H24C23.98 27.75 23.95 27.75 23.93 27.74C23.78 27.73 23.65 27.68 23.54 27.58C23.36 27.45 23.25 27.24 23.25 27C23.25 26.59 23.59 26.25 24 26.25H26C26.41 26.25 26.75 26.59 26.75 27C26.75 27.41 26.41 27.75 26 27.75Z" fill="#646F95"/>
<path d="M28.9898 14.19V15C28.9898 15.55 28.5398 16 27.9898 16H22.3598C19.7998 16 18.4998 17.31 18.4998 19.88V29C18.4998 29.55 18.0498 30 17.4998 30H15.5498C15.1498 30 14.8298 29.68 14.8298 29.29C14.8298 28.89 15.1498 28.58 15.5498 28.58H17.4998V24.75H13.9998C11.7798 24.64 10.0098 22.81 10.0098 20.56V14.19C10.0098 11.88 11.8898 10 14.2098 10H24.7998C27.1098 10 28.9898 11.88 28.9898 14.19Z" fill="#646F95"/>
</svg>
